<?xml version="1.0" encoding="utf-8"?>
<!-- Generator: Adobe Illustrator 23.1.0, SVG Export Plug-In . SVG Version: 6.00 Build 0)  -->
<svg version="1.1" id="Layer_1" xmlns="http://www.w3.org/2000/svg" xmlns:xlink="http://www.w3.org/1999/xlink" x="0px" y="0px"
	 viewBox="0 0 104 86" style="enable-background:new 0 0 104 86;" xml:space="preserve">
<style type="text/css">
	.st0{fill:url(#SVGID_1_);}
	.st1{fill:url(#SVGID_2_);}
	.st2{fill:url(#SVGID_3_);}
	.st3{fill:url(#SVGID_4_);}
	.st4{fill:url(#SVGID_5_);}
	.st5{fill:url(#SVGID_6_);}
	.st6{fill:url(#SVGID_7_);}
</style>
<g>
	<g>
		<g>
			<g>
				
					<linearGradient id="SVGID_1_" gradientUnits="userSpaceOnUse" x1="28.7855" y1="35.0769" x2="57.2613" y2="84.3985" gradientTransform="matrix(1 0 0 -1 0 88)">
					<stop  offset="0" style="stop-color:#0064E9"/>
					<stop  offset="0.3088" style="stop-color:#0096D1"/>
					<stop  offset="0.6175" style="stop-color:#00C1BD"/>
					<stop  offset="0.8577" style="stop-color:#00DBB1"/>
					<stop  offset="1" style="stop-color:#00E5AC"/>
				</linearGradient>
				<path class="st0" d="M46.05,5.89l1.42,2.21c5.18-3.25,11.76-3.25,16.94,0l1.42-2.21C59.79,2.04,52.07,2.04,46.05,5.89z"/>
			</g>
		</g>
		<g>
			<g>
				
					<linearGradient id="SVGID_2_" gradientUnits="userSpaceOnUse" x1="18.0308" y1="26.4328" x2="54.6381" y2="89.8386" gradientTransform="matrix(1 0 0 -1 0 88)">
					<stop  offset="0" style="stop-color:#0064E9"/>
					<stop  offset="0.3088" style="stop-color:#0096D1"/>
					<stop  offset="0.6175" style="stop-color:#00C1BD"/>
					<stop  offset="0.8577" style="stop-color:#00DBB1"/>
					<stop  offset="1" style="stop-color:#00E5AC"/>
				</linearGradient>
				<path class="st1" d="M40.2,21.36h-2.62c0,2.43,0.48,4.83,1.41,7.07l2.42-1.01C40.61,25.5,40.19,23.44,40.2,21.36z"/>
			</g>
		</g>
		<g>
			<g>
				
					<linearGradient id="SVGID_3_" gradientUnits="userSpaceOnUse" x1="39.7969" y1="16.2376" x2="71.6039" y2="71.3288" gradientTransform="matrix(1 0 0 -1 0 88)">
					<stop  offset="0" style="stop-color:#0064E9"/>
					<stop  offset="0.3088" style="stop-color:#0096D1"/>
					<stop  offset="0.6175" style="stop-color:#00C1BD"/>
					<stop  offset="0.8577" style="stop-color:#00DBB1"/>
					<stop  offset="1" style="stop-color:#00E5AC"/>
				</linearGradient>
				<path class="st2" d="M61.98,35.89c-1.92,0.8-3.97,1.21-6.05,1.21v2.62c2.43,0,4.83-0.48,7.06-1.41L61.98,35.89z"/>
			</g>
		</g>
		<g>
			<g>
				
					<linearGradient id="SVGID_4_" gradientUnits="userSpaceOnUse" x1="42.0447" y1="10.7496" x2="76.2759" y2="70.0397" gradientTransform="matrix(1 0 0 -1 0 88)">
					<stop  offset="0" style="stop-color:#0064E9"/>
					<stop  offset="0.3088" style="stop-color:#0096D1"/>
					<stop  offset="0.6175" style="stop-color:#00C1BD"/>
					<stop  offset="0.8577" style="stop-color:#00DBB1"/>
					<stop  offset="1" style="stop-color:#00E5AC"/>
				</linearGradient>
				<path class="st3" d="M71.67,21.36c0,2.08-0.41,4.13-1.21,6.05l2.42,1.01c0.94-2.24,1.42-4.64,1.41-7.06H71.67z"/>
			</g>
		</g>
		<g>
			<g>
				
					<linearGradient id="SVGID_5_" gradientUnits="userSpaceOnUse" x1="29.6318" y1="21.1035" x2="63.6638" y2="80.0486" gradientTransform="matrix(1 0 0 -1 0 88)">
					<stop  offset="0" style="stop-color:#0064E9"/>
					<stop  offset="0.3088" style="stop-color:#0096D1"/>
					<stop  offset="0.6175" style="stop-color:#00C1BD"/>
					<stop  offset="0.8577" style="stop-color:#00DBB1"/>
					<stop  offset="1" style="stop-color:#00E5AC"/>
				</linearGradient>
				<path class="st4" d="M55.93,8.24c-7.24,0-13.11,5.87-13.11,13.11s5.87,13.11,13.11,13.11c7.24-0.01,13.11-5.88,13.11-13.11
					C69.05,14.12,63.18,8.24,55.93,8.24z M55.93,31.85c-5.79,0-10.49-4.7-10.49-10.49s4.7-10.49,10.49-10.49s10.49,4.7,10.49,10.49
					S61.73,31.85,55.93,31.85z"/>
			</g>
		</g>
		<g>
			<g>
				
					<linearGradient id="SVGID_6_" gradientUnits="userSpaceOnUse" x1="27.6319" y1="17.6089" x2="64.2696" y2="81.0672" gradientTransform="matrix(1 0 0 -1 0 88)">
					<stop  offset="0" style="stop-color:#0064E9"/>
					<stop  offset="0.3088" style="stop-color:#0096D1"/>
					<stop  offset="0.6175" style="stop-color:#00C1BD"/>
					<stop  offset="0.8577" style="stop-color:#00DBB1"/>
					<stop  offset="1" style="stop-color:#00E5AC"/>
				</linearGradient>
				<path class="st5" d="M58.82,20.94l-1.57-0.52v-3.37c0.73,0.25,1.24,0.91,1.31,1.69h2.62c-0.12-2.21-1.75-4.05-3.93-4.43v-0.82
					h-2.62v0.82c-2.18,0.38-3.82,2.21-3.93,4.43c0.05,1.42,1,2.64,2.36,3.04l1.57,0.52v3.36c-0.73-0.25-1.24-0.91-1.31-1.68H50.7
					c0.12,2.21,1.75,4.05,3.93,4.43v0.82h2.62v-0.82c2.18-0.38,3.82-2.21,3.93-4.43C61.13,22.57,60.18,21.34,58.82,20.94z
					 M54.62,19.54l-0.75-0.25c-0.33-0.11-0.56-0.34-0.56-0.55c0.07-0.77,0.58-1.43,1.31-1.69V19.54z M57.25,25.67v-2.49L58,23.43
					c0.33,0.11,0.56,0.34,0.56,0.55C58.49,24.75,57.98,25.41,57.25,25.67z"/>
			</g>
		</g>
		<g>
			<g>
				
					<linearGradient id="SVGID_7_" gradientUnits="userSpaceOnUse" x1="42.0472" y1="14.0539" x2="74.2235" y2="69.785" gradientTransform="matrix(1 0 0 -1 0 88)">
					<stop  offset="0" style="stop-color:#0064E9"/>
					<stop  offset="0.3088" style="stop-color:#0096D1"/>
					<stop  offset="0.6175" style="stop-color:#00C1BD"/>
					<stop  offset="0.8577" style="stop-color:#00DBB1"/>
					<stop  offset="1" style="stop-color:#00E5AC"/>
				</linearGradient>
				<path class="st6" d="M90.96,57.15l-4.32-4.32l4.32-4.32c0.51-0.51,0.51-1.34,0-1.85L73.91,29.61c-0.51-0.51-1.34-0.51-1.85,0
					L55.28,46.39L37.19,28.3c-0.51-0.51-1.34-0.51-1.85,0L18.29,45.35c-0.51,0.51-0.51,1.34,0,1.85l9.56,9.56h-15.2v2.62H29.7
					c0.18,0,0.35-0.04,0.52-0.11l8.93-3.83h19.4v5.25H44.13c-0.72,0-1.31,0.59-1.31,1.31c0,0.51,0.3,0.98,0.76,1.19l17.05,7.87
					c0.43,0.2,0.93,0.15,1.31-0.13l22.71-16.39l3.45,3.45L62,80.36h-7.15l-24.7-9.1c-0.15-0.05-0.3-0.08-0.45-0.08H12.66v2.62h16.81
					l24.7,9.1c0.15,0.05,0.3,0.08,0.45,0.08h7.87c0.31,0,0.62-0.11,0.85-0.32l27.54-23.61c0.55-0.47,0.61-1.3,0.14-1.85
					C91.01,57.2,90.98,57.18,90.96,57.15z M38.89,52.84c-0.18,0-0.35,0.04-0.52,0.11l-0.32,0.13c1.29-3.36,5.07-5.03,8.43-3.74
					c1.64,0.63,2.95,1.89,3.64,3.5H38.89z M52.92,52.84c-1.15-3.9-4.73-6.57-8.79-6.56c-4.64,0.03-8.54,3.49-9.11,8.1l-4.1,1.75
					l-9.85-9.85l15.2-15.2l21.75,21.75h-5.1V52.84z M61.04,68.37L50.1,63.33h9.77c0.72,0,1.31-0.59,1.31-1.31V56l7.12,7.12
					L61.04,68.37z M61.3,52.42c0.5-2.8,2.94-4.84,5.78-4.83c3.25-0.01,5.89,2.63,5.9,5.88c0.01,2.85-2.03,5.29-4.82,5.8L61.3,52.42z
					 M70.29,61.4c0.53-0.21,1.03-0.48,1.5-0.79l-1.33,0.96L70.29,61.4z M83.94,51.83l-11.56,8.35c3.68-2.93,4.29-8.3,1.35-11.98
					c-2.93-3.68-8.3-4.29-11.98-1.35c-1.14,0.91-2.03,2.09-2.58,3.44l-2.04-2.04L72.98,32.4l15.2,15.2L83.94,51.83z"/>
			</g>
		</g>
	</g>
</g>
</svg>
