<?xml version="1.0" encoding="utf-8"?>
<!-- Generator: Adobe Illustrator 23.1.0, SVG Export Plug-In . SVG Version: 6.00 Build 0)  -->
<svg version="1.1" id="Layer_1" xmlns="http://www.w3.org/2000/svg" xmlns:xlink="http://www.w3.org/1999/xlink" x="0px" y="0px"
	 viewBox="0 0 104 86" style="enable-background:new 0 0 104 86;" xml:space="preserve">
<style type="text/css">
	.st0{fill:url(#SVGID_1_);}
	.st1{fill:url(#SVGID_2_);}
	.st2{fill:url(#SVGID_3_);}
	.st3{fill:url(#SVGID_4_);}
	.st4{fill:url(#SVGID_5_);}
	.st5{fill:url(#SVGID_6_);}
	.st6{fill:url(#SVGID_7_);}
	.st7{fill:url(#SVGID_8_);}
	.st8{fill:url(#SVGID_9_);}
	.st9{fill:url(#SVGID_10_);}
	.st10{fill:url(#SVGID_11_);}
	.st11{fill:url(#SVGID_12_);}
	.st12{fill:url(#SVGID_13_);}
	.st13{fill:url(#SVGID_14_);}
	.st14{fill:url(#SVGID_15_);}
	.st15{fill:url(#SVGID_16_);}
	.st16{fill:url(#SVGID_17_);}
	.st17{fill:url(#SVGID_18_);}
	.st18{fill:url(#SVGID_19_);}
	.st19{fill:url(#SVGID_20_);}
	.st20{fill:url(#SVGID_21_);}
	.st21{fill:url(#SVGID_22_);}
	.st22{fill:url(#SVGID_23_);}
	.st23{fill:url(#SVGID_24_);}
	.st24{fill:url(#SVGID_25_);}
	.st25{fill:url(#SVGID_26_);}
	.st26{fill:url(#SVGID_27_);}
	.st27{fill:url(#SVGID_28_);}
	.st28{fill:url(#SVGID_29_);}
	.st29{fill:url(#SVGID_30_);}
	.st30{fill:#005985;}
	.st31{fill:url(#SVGID_31_);}
	.st32{fill:url(#SVGID_32_);}
	.st33{fill:url(#SVGID_33_);}
	.st34{fill:url(#SVGID_34_);}
	.st35{fill:url(#SVGID_35_);}
	.st36{fill:url(#SVGID_36_);}
	.st37{fill:url(#SVGID_37_);}
	.st38{fill:url(#SVGID_38_);}
	.st39{fill:url(#SVGID_39_);}
	.st40{fill:url(#SVGID_40_);}
	.st41{fill:url(#SVGID_41_);}
</style>
<g>
	<g>
		<g>
			<g>
				
					<linearGradient id="SVGID_1_" gradientUnits="userSpaceOnUse" x1="-176.2145" y1="90.0769" x2="-147.7387" y2="139.3985" gradientTransform="matrix(1 0 0 -1 0 88)">
					<stop  offset="0" style="stop-color:#0064E9"/>
					<stop  offset="0.3088" style="stop-color:#0096D1"/>
					<stop  offset="0.6175" style="stop-color:#00C1BD"/>
					<stop  offset="0.8577" style="stop-color:#00DBB1"/>
					<stop  offset="1" style="stop-color:#00E5AC"/>
				</linearGradient>
				<path class="st0" d="M-158.95-49.11l1.42,2.21c5.18-3.25,11.76-3.25,16.94,0l1.42-2.21C-145.21-52.96-152.93-52.96-158.95-49.11
					z"/>
			</g>
		</g>
		<g>
			<g>
				
					<linearGradient id="SVGID_2_" gradientUnits="userSpaceOnUse" x1="-186.9692" y1="81.4328" x2="-150.3619" y2="144.8386" gradientTransform="matrix(1 0 0 -1 0 88)">
					<stop  offset="0" style="stop-color:#0064E9"/>
					<stop  offset="0.3088" style="stop-color:#0096D1"/>
					<stop  offset="0.6175" style="stop-color:#00C1BD"/>
					<stop  offset="0.8577" style="stop-color:#00DBB1"/>
					<stop  offset="1" style="stop-color:#00E5AC"/>
				</linearGradient>
				<path class="st1" d="M-164.8-33.64h-2.62c0,2.43,0.48,4.83,1.41,7.07l2.42-1.01C-164.39-29.5-164.81-31.56-164.8-33.64z"/>
			</g>
		</g>
		<g>
			<g>
				
					<linearGradient id="SVGID_3_" gradientUnits="userSpaceOnUse" x1="-165.203" y1="71.2376" x2="-133.3961" y2="126.3288" gradientTransform="matrix(1 0 0 -1 0 88)">
					<stop  offset="0" style="stop-color:#0064E9"/>
					<stop  offset="0.3088" style="stop-color:#0096D1"/>
					<stop  offset="0.6175" style="stop-color:#00C1BD"/>
					<stop  offset="0.8577" style="stop-color:#00DBB1"/>
					<stop  offset="1" style="stop-color:#00E5AC"/>
				</linearGradient>
				<path class="st2" d="M-143.02-19.11c-1.92,0.8-3.97,1.21-6.05,1.21v2.62c2.43,0,4.83-0.48,7.06-1.41L-143.02-19.11z"/>
			</g>
		</g>
		<g>
			<g>
				
					<linearGradient id="SVGID_4_" gradientUnits="userSpaceOnUse" x1="-162.9553" y1="65.7496" x2="-128.7241" y2="125.0397" gradientTransform="matrix(1 0 0 -1 0 88)">
					<stop  offset="0" style="stop-color:#0064E9"/>
					<stop  offset="0.3088" style="stop-color:#0096D1"/>
					<stop  offset="0.6175" style="stop-color:#00C1BD"/>
					<stop  offset="0.8577" style="stop-color:#00DBB1"/>
					<stop  offset="1" style="stop-color:#00E5AC"/>
				</linearGradient>
				<path class="st3" d="M-133.33-33.64c0,2.08-0.41,4.13-1.21,6.05l2.42,1.01c0.94-2.24,1.42-4.64,1.41-7.06H-133.33z"/>
			</g>
		</g>
		<g>
			<g>
				
					<linearGradient id="SVGID_5_" gradientUnits="userSpaceOnUse" x1="-175.3682" y1="76.1035" x2="-141.3362" y2="135.0486" gradientTransform="matrix(1 0 0 -1 0 88)">
					<stop  offset="0" style="stop-color:#0064E9"/>
					<stop  offset="0.3088" style="stop-color:#0096D1"/>
					<stop  offset="0.6175" style="stop-color:#00C1BD"/>
					<stop  offset="0.8577" style="stop-color:#00DBB1"/>
					<stop  offset="1" style="stop-color:#00E5AC"/>
				</linearGradient>
				<path class="st4" d="M-149.07-46.76c-7.24,0-13.11,5.87-13.11,13.11s5.87,13.11,13.11,13.11c7.24-0.01,13.11-5.88,13.11-13.11
					C-135.95-40.88-141.82-46.76-149.07-46.76z M-149.07-23.15c-5.79,0-10.49-4.7-10.49-10.49s4.7-10.49,10.49-10.49
					s10.49,4.7,10.49,10.49S-143.27-23.15-149.07-23.15z"/>
			</g>
		</g>
		<g>
			<g>
				
					<linearGradient id="SVGID_6_" gradientUnits="userSpaceOnUse" x1="-177.3681" y1="72.6089" x2="-140.7304" y2="136.0672" gradientTransform="matrix(1 0 0 -1 0 88)">
					<stop  offset="0" style="stop-color:#0064E9"/>
					<stop  offset="0.3088" style="stop-color:#0096D1"/>
					<stop  offset="0.6175" style="stop-color:#00C1BD"/>
					<stop  offset="0.8577" style="stop-color:#00DBB1"/>
					<stop  offset="1" style="stop-color:#00E5AC"/>
				</linearGradient>
				<path class="st5" d="M-146.18-34.06l-1.57-0.52v-3.37c0.73,0.25,1.24,0.91,1.31,1.69h2.62c-0.12-2.21-1.75-4.05-3.93-4.43v-0.82
					h-2.62v0.82c-2.18,0.38-3.82,2.21-3.93,4.43c0.05,1.42,1,2.64,2.36,3.04l1.57,0.52v3.36c-0.73-0.25-1.24-0.91-1.31-1.68h-2.62
					c0.12,2.21,1.75,4.05,3.93,4.43v0.82h2.62v-0.82c2.18-0.38,3.82-2.21,3.93-4.43C-143.87-32.43-144.82-33.66-146.18-34.06z
					 M-150.38-35.46l-0.75-0.25c-0.33-0.11-0.56-0.34-0.56-0.55c0.07-0.77,0.58-1.43,1.31-1.69V-35.46z M-147.75-29.33v-2.49
					l0.75,0.25c0.33,0.11,0.56,0.34,0.56,0.55C-146.51-30.25-147.02-29.59-147.75-29.33z"/>
			</g>
		</g>
		<g>
			<g>
				
					<linearGradient id="SVGID_7_" gradientUnits="userSpaceOnUse" x1="-162.9581" y1="69.057" x2="-130.7818" y2="124.7881" gradientTransform="matrix(1 0 0 -1 0 88)">
					<stop  offset="0" style="stop-color:#0064E9"/>
					<stop  offset="0.3088" style="stop-color:#0096D1"/>
					<stop  offset="0.6175" style="stop-color:#00C1BD"/>
					<stop  offset="0.8577" style="stop-color:#00DBB1"/>
					<stop  offset="1" style="stop-color:#00E5AC"/>
				</linearGradient>
				<path class="st6" d="M-114.04,2.15l-4.32-4.32l4.32-4.32c0.51-0.51,0.51-1.34,0-1.85l-17.05-17.05c-0.51-0.51-1.34-0.51-1.85,0
					l-16.78,16.78l-18.09-18.09c-0.51-0.51-1.34-0.51-1.85,0l-17.05,17.05c-0.51,0.51-0.51,1.34,0,1.85l9.56,9.56h-15.2v2.62h17.05
					c0.18,0,0.35-0.04,0.52-0.11l8.93-3.83h19.4V5.7h-14.43c-0.72,0-1.31,0.59-1.31,1.31c0,0.51,0.3,0.98,0.76,1.19l17.05,7.87
					c0.43,0.2,0.93,0.15,1.31-0.13l22.71-16.39l3.45,3.45l-26.1,22.37h-7.15l-24.7-9.1c-0.15-0.05-0.3-0.08-0.45-0.08h-17.05v2.62
					h16.81l24.7,9.1c0.15,0.05,0.3,0.08,0.45,0.08h7.87c0.31,0,0.62-0.11,0.85-0.32l27.54-23.61c0.55-0.47,0.61-1.3,0.14-1.85
					C-113.99,2.2-114.02,2.18-114.04,2.15z M-166.11-2.16c-0.18,0-0.35,0.04-0.52,0.11l-0.32,0.13c1.29-3.36,5.07-5.03,8.43-3.74
					c1.64,0.63,2.95,1.89,3.64,3.5L-166.11-2.16z M-152.08-2.16c-1.15-3.9-4.73-6.57-8.79-6.56c-4.64,0.03-8.54,3.49-9.11,8.1
					l-4.1,1.75l-9.85-9.85l15.2-15.2l21.75,21.75L-152.08-2.16L-152.08-2.16z M-143.96,13.37l-10.93-5.05h9.77
					c0.72,0,1.31-0.59,1.31-1.31V1l7.12,7.12L-143.96,13.37z M-143.7-2.58c0.5-2.8,2.94-4.84,5.78-4.83
					c3.25-0.01,5.89,2.63,5.9,5.88c0.01,2.85-2.03,5.29-4.82,5.8L-143.7-2.58z M-134.71,6.4c0.53-0.21,1.03-0.48,1.5-0.79
					l-1.33,0.96L-134.71,6.4z M-121.06-3.17l-11.56,8.35c3.68-2.93,4.29-8.3,1.35-11.98c-2.93-3.68-8.3-4.29-11.98-1.35
					c-1.14,0.91-2.03,2.09-2.58,3.44l-2.04-2.04l15.85-15.85l15.2,15.2L-121.06-3.17z"/>
			</g>
		</g>
	</g>
</g>
<g>
	<g>
		
			<linearGradient id="SVGID_8_" gradientUnits="userSpaceOnUse" x1="275.977" y1="-17.6955" x2="312.24" y2="45.1139" gradientTransform="matrix(1 0 0 -1 0 88)">
			<stop  offset="0" style="stop-color:#0064E9"/>
			<stop  offset="0.3088" style="stop-color:#0096D1"/>
			<stop  offset="0.6175" style="stop-color:#00C1BD"/>
			<stop  offset="0.8577" style="stop-color:#00DBB1"/>
			<stop  offset="1" style="stop-color:#00E5AC"/>
		</linearGradient>
		<path class="st7" d="M309.71,46.94c0-7.83-6.37-14.19-14.19-14.19c-7.83,0-14.19,6.37-14.19,14.19c0,3.26,1.12,6.26,2.97,8.66
			c-0.25,0.52-0.39,1.08-0.39,1.66v7.8c-1.49-2.38-4.12-3.93-7.05-3.93c-1.8,0-3.27,1.47-3.27,3.27c0,0.65,0.19,1.27,0.55,1.81
			l1.33,1.99c0.49,0.74,0.81,1.59,0.92,2.47l0.91,7.31c0.14,1.11,0.57,2.17,1.24,3.07l2.79,3.72v2.15h-2.58V105h28.39V86.94h-2.58
			v-2.28l1.9-3.8c0.44-0.89,0.68-1.89,0.68-2.88V57.26c0-0.58-0.15-1.15-0.39-1.66C308.59,53.2,309.71,50.2,309.71,46.94
			L309.71,46.94z M295.52,35.32c6.4,0,11.61,5.21,11.61,11.61s-5.21,11.61-11.61,11.61s-11.61-5.21-11.61-11.61
			S289.11,35.32,295.52,35.32z M304.55,89.52v2.58h-23.23v-2.58H304.55z M281.32,102.42v-7.74h23.23v7.74H281.32z M304.14,79.71
			l-2.17,4.34v2.89H283.9v-3.01l-3.31-4.41c-0.4-0.54-0.66-1.17-0.74-1.84l-0.91-7.31c-0.16-1.27-0.62-2.51-1.33-3.58l-1.33-1.99
			c-0.08-0.11-0.12-0.25-0.12-0.38c0-0.38,0.31-0.69,0.69-0.69c2.72,0,5.09,1.94,5.63,4.61l1.61,8.05l0.79,0.2
			c2.46,0.62,4.18,2.82,4.18,5.36v2.42h2.58v-2.42c0-3.38-2.08-6.34-5.16-7.54V57.88c0.79,0.65,1.66,1.21,2.58,1.69v13.18h2.58
			V60.58c0.83,0.24,1.69,0.4,2.58,0.49v11.68h2.58V61.06c0.89-0.08,1.75-0.25,2.58-0.49v12.16h2.58V59.56
			c0.92-0.47,1.79-1.03,2.58-1.69v20.1C304.55,78.57,304.41,79.17,304.14,79.71z"/>
		
			<linearGradient id="SVGID_9_" gradientUnits="userSpaceOnUse" x1="287.9932" y1="28.0282" x2="322.2654" y2="87.3896" gradientTransform="matrix(1 0 0 -1 0 88)">
			<stop  offset="0" style="stop-color:#0064E9"/>
			<stop  offset="0.3088" style="stop-color:#0096D1"/>
			<stop  offset="0.6175" style="stop-color:#00C1BD"/>
			<stop  offset="0.8577" style="stop-color:#00DBB1"/>
			<stop  offset="1" style="stop-color:#00E5AC"/>
		</linearGradient>
		<path class="st8" d="M295.52,50.81c-0.71,0-1.29-0.58-1.29-1.29h-2.58c0,1.68,1.08,3.1,2.58,3.63v2.82h2.58v-2.58h2.58v-3.87
			c0-2.13-1.74-3.87-3.87-3.87c-0.71,0-1.29-0.58-1.29-1.29v-1.29h1.29c0.71,0,1.29,0.58,1.29,1.29h2.58c0-1.68-1.08-3.1-2.58-3.63
			V37.9h-2.58v2.58h-2.58v3.87c0,2.13,1.74,3.87,3.87,3.87c0.71,0,1.29,0.58,1.29,1.29v1.29L295.52,50.81L295.52,50.81z"/>
		
			<linearGradient id="SVGID_10_" gradientUnits="userSpaceOnUse" x1="314.263" y1="4.8034" x2="350.4229" y2="67.4341" gradientTransform="matrix(1 0 0 -1 0 88)">
			<stop  offset="0" style="stop-color:#0064E9"/>
			<stop  offset="0.3088" style="stop-color:#0096D1"/>
			<stop  offset="0.6175" style="stop-color:#00C1BD"/>
			<stop  offset="0.8577" style="stop-color:#00DBB1"/>
			<stop  offset="1" style="stop-color:#00E5AC"/>
		</linearGradient>
		<path class="st9" d="M347.87,63.79l-1.33-1.99c-0.49-0.74-0.81-1.59-0.92-2.47l-0.91-7.31c-0.14-1.11-0.57-2.17-1.24-3.07
			l-2.79-3.72v-2.15h2.58V25h-28.39v18.06h2.58v2.28l-1.9,3.8c-0.44,0.89-0.68,1.89-0.68,2.88v20.72c0,0.26,0.03,0.51,0.08,0.76
			c-3.22,3.06-5.24,7.37-5.24,12.15c0,9.25,7.53,16.77,16.77,16.77c9.25,0,16.77-7.53,16.77-16.77c0-4.78-2.02-9.09-5.24-12.15
			c0.05-0.25,0.08-0.5,0.08-0.76v-7.8c1.49,2.38,4.12,3.93,7.05,3.93c1.8,0,3.27-1.47,3.27-3.27
			C348.42,64.95,348.23,64.33,347.87,63.79z M340.68,27.58v12.9h-23.23v-5.16h10.32v-2.58h-10.32v-5.16L340.68,27.58z M340.68,85.65
			c0,7.83-6.37,14.19-14.19,14.19c-7.83,0-14.19-6.37-14.19-14.19s6.37-14.19,14.19-14.19C334.31,71.45,340.68,77.82,340.68,85.65z
			 M345.15,66.29c-2.72,0-5.09-1.94-5.63-4.61l-1.61-8.05l-0.79-0.2c-2.46-0.62-4.18-2.82-4.18-5.36v-2.42h-2.58v2.42
			c0,3.38,2.08,6.34,5.16,7.54v15.93c-0.82-0.53-1.68-0.99-2.58-1.37V57.26h-2.58v12.08c-0.84-0.2-1.7-0.34-2.58-0.4V57.26h-2.58
			v11.68c-0.88,0.07-1.74,0.2-2.58,0.4V57.26h-2.58v12.91c-0.9,0.38-1.76,0.84-2.58,1.37V52.02c0-0.6,0.14-1.2,0.41-1.73l2.17-4.34
			v-2.89h18.06v3.01l3.31,4.41c0.4,0.54,0.66,1.17,0.74,1.84l0.91,7.31c0.16,1.27,0.62,2.51,1.33,3.58l1.33,1.99
			c0.08,0.11,0.12,0.25,0.12,0.38C345.84,65.98,345.53,66.29,345.15,66.29L345.15,66.29z"/>
		
			<linearGradient id="SVGID_11_" gradientUnits="userSpaceOnUse" x1="298.44" y1="-46.1894" x2="340.2596" y2="26.2442" gradientTransform="matrix(1 0 0 -1 0 88)">
			<stop  offset="0" style="stop-color:#0064E9"/>
			<stop  offset="0.3088" style="stop-color:#0096D1"/>
			<stop  offset="0.6175" style="stop-color:#00C1BD"/>
			<stop  offset="0.8577" style="stop-color:#00DBB1"/>
			<stop  offset="1" style="stop-color:#00E5AC"/>
		</linearGradient>
		<path class="st10" d="M317.82,92.47l15.48-15.48l1.82,1.82L319.64,94.3L317.82,92.47z"/>
		
			<linearGradient id="SVGID_12_" gradientUnits="userSpaceOnUse" x1="304.7761" y1="-49.3569" x2="341.6885" y2="14.5772" gradientTransform="matrix(1 0 0 -1 0 88)">
			<stop  offset="0" style="stop-color:#0064E9"/>
			<stop  offset="0.3088" style="stop-color:#0096D1"/>
			<stop  offset="0.6175" style="stop-color:#00C1BD"/>
			<stop  offset="0.8577" style="stop-color:#00DBB1"/>
			<stop  offset="1" style="stop-color:#00E5AC"/>
		</linearGradient>
		<path class="st11" d="M331.65,86.94c-2.13,0-3.87,1.74-3.87,3.87s1.74,3.87,3.87,3.87s3.87-1.74,3.87-3.87
			S333.78,86.94,331.65,86.94z M331.65,92.1c-0.71,0-1.29-0.58-1.29-1.29s0.58-1.29,1.29-1.29c0.71,0,1.29,0.58,1.29,1.29
			S332.36,92.1,331.65,92.1z"/>
		
			<linearGradient id="SVGID_13_" gradientUnits="userSpaceOnUse" x1="298.7158" y1="-31.6316" x2="335.6282" y2="32.3025" gradientTransform="matrix(1 0 0 -1 0 88)">
			<stop  offset="0" style="stop-color:#0064E9"/>
			<stop  offset="0.3088" style="stop-color:#0096D1"/>
			<stop  offset="0.6175" style="stop-color:#00C1BD"/>
			<stop  offset="0.8577" style="stop-color:#00DBB1"/>
			<stop  offset="1" style="stop-color:#00E5AC"/>
		</linearGradient>
		<path class="st12" d="M321.32,84.35c2.13,0,3.87-1.74,3.87-3.87c0-2.13-1.74-3.87-3.87-3.87s-3.87,1.74-3.87,3.87
			C317.45,82.62,319.19,84.35,321.32,84.35z M321.32,79.19c0.71,0,1.29,0.58,1.29,1.29s-0.58,1.29-1.29,1.29
			c-0.71,0-1.29-0.58-1.29-1.29C320.03,79.77,320.61,79.19,321.32,79.19z"/>
		
			<linearGradient id="SVGID_14_" gradientUnits="userSpaceOnUse" x1="335.5746" y1="56.299" x2="372.487" y2="120.2332" gradientTransform="matrix(1 0 0 -1 0 88)">
			<stop  offset="0" style="stop-color:#0064E9"/>
			<stop  offset="0.3088" style="stop-color:#0096D1"/>
			<stop  offset="0.6175" style="stop-color:#00C1BD"/>
			<stop  offset="0.8577" style="stop-color:#00DBB1"/>
			<stop  offset="1" style="stop-color:#00E5AC"/>
		</linearGradient>
		<path class="st13" d="M334.23,37.9c2.13,0,3.87-1.74,3.87-3.87s-1.74-3.87-3.87-3.87s-3.87,1.74-3.87,3.87
			S332.09,37.9,334.23,37.9z M334.23,32.74c0.71,0,1.29,0.58,1.29,1.29s-0.58,1.29-1.29,1.29s-1.29-0.58-1.29-1.29
			S333.51,32.74,334.23,32.74z"/>
	</g>
</g>
<g>
	<g>
		<g>
			<g>
				
					<linearGradient id="SVGID_15_" gradientUnits="userSpaceOnUse" x1="70.3096" y1="-115.3191" x2="119.3968" y2="-30.2978" gradientTransform="matrix(1 0 0 -1 0 88)">
					<stop  offset="0" style="stop-color:#0064E9"/>
					<stop  offset="0.3088" style="stop-color:#0096D1"/>
					<stop  offset="0.6175" style="stop-color:#00C1BD"/>
					<stop  offset="0.8577" style="stop-color:#00DBB1"/>
					<stop  offset="1" style="stop-color:#00E5AC"/>
				</linearGradient>
				<path class="st14" d="M135.85,137.42l-1.13-6.39c-0.83-4.73-5.25-8.15-10.51-8.15c-0.71,0-1.42,0.06-2.12,0.19L53.5,135.16
					c-6,1.06-10.11,6.36-9.15,11.81l0.08,0.43v35.22c0,5.79,5.2,10.5,11.58,10.5h74.18c6.39,0,11.58-4.71,11.58-10.5v-36.04
					C141.78,142.65,139.39,139.22,135.85,137.42z M123.13,128.93c0.36-0.06,0.73-0.1,1.09-0.1c2.36,0,4.32,1.36,4.65,3.23l0.71,4.01
					h-47L123.13,128.93z M135.83,182.62c0,2.51-2.52,4.55-5.63,4.55H56.02c-3.1,0-5.63-2.04-5.63-4.55v-36.04
					c0-2.51,2.52-4.55,5.63-4.55h74.18c3.1,0,5.63,2.04,5.63,4.55V182.62z"/>
				
					<linearGradient id="SVGID_16_" gradientUnits="userSpaceOnUse" x1="72.0127" y1="-84.9282" x2="75.7173" y2="-78.5118" gradientTransform="matrix(1 0 0 -1 0 88)">
					<stop  offset="0" style="stop-color:#0064E9"/>
					<stop  offset="0.3088" style="stop-color:#0096D1"/>
					<stop  offset="0.6175" style="stop-color:#00C1BD"/>
					<stop  offset="0.8577" style="stop-color:#00DBB1"/>
					<stop  offset="1" style="stop-color:#00E5AC"/>
				</linearGradient>
				<rect x="70.89" y="167.16" class="st15" width="5.95" height="5.12"/>
				
					<linearGradient id="SVGID_17_" gradientUnits="userSpaceOnUse" x1="72.0127" y1="-95.1782" x2="75.7173" y2="-88.7618" gradientTransform="matrix(1 0 0 -1 0 88)">
					<stop  offset="0" style="stop-color:#0064E9"/>
					<stop  offset="0.3088" style="stop-color:#0096D1"/>
					<stop  offset="0.6175" style="stop-color:#00C1BD"/>
					<stop  offset="0.8577" style="stop-color:#00DBB1"/>
					<stop  offset="1" style="stop-color:#00E5AC"/>
				</linearGradient>
				<rect x="70.89" y="177.41" class="st16" width="5.95" height="5.12"/>
				
					<linearGradient id="SVGID_18_" gradientUnits="userSpaceOnUse" x1="72.0127" y1="-64.4282" x2="75.7173" y2="-58.0118" gradientTransform="matrix(1 0 0 -1 0 88)">
					<stop  offset="0" style="stop-color:#0064E9"/>
					<stop  offset="0.3088" style="stop-color:#0096D1"/>
					<stop  offset="0.6175" style="stop-color:#00C1BD"/>
					<stop  offset="0.8577" style="stop-color:#00DBB1"/>
					<stop  offset="1" style="stop-color:#00E5AC"/>
				</linearGradient>
				<rect x="70.89" y="146.66" class="st17" width="5.95" height="5.12"/>
				
					<linearGradient id="SVGID_19_" gradientUnits="userSpaceOnUse" x1="72.0127" y1="-74.6782" x2="75.7173" y2="-68.2618" gradientTransform="matrix(1 0 0 -1 0 88)">
					<stop  offset="0" style="stop-color:#0064E9"/>
					<stop  offset="0.3088" style="stop-color:#0096D1"/>
					<stop  offset="0.6175" style="stop-color:#00C1BD"/>
					<stop  offset="0.8577" style="stop-color:#00DBB1"/>
					<stop  offset="1" style="stop-color:#00E5AC"/>
				</linearGradient>
				<rect x="70.89" y="156.91" class="st18" width="5.95" height="5.12"/>
				
					<linearGradient id="SVGID_20_" gradientUnits="userSpaceOnUse" x1="101.6382" y1="-89.3064" x2="116.7633" y2="-63.109" gradientTransform="matrix(1 0 0 -1 0 88)">
					<stop  offset="0" style="stop-color:#0064E9"/>
					<stop  offset="0.3088" style="stop-color:#0096D1"/>
					<stop  offset="0.6175" style="stop-color:#00C1BD"/>
					<stop  offset="0.8577" style="stop-color:#00DBB1"/>
					<stop  offset="1" style="stop-color:#00E5AC"/>
				</linearGradient>
				<path class="st19" d="M116.28,153.64l-4.32,4.61l-13.7-4.1l-2.31,2.31c-0.25,0.25-0.25,0.66,0,0.92l11.11,6.11l-5.59,5.68
					l-4.32-0.88l-1.44,1.44c-0.19,0.19-0.19,0.5,0,0.69l8.15,8.15c0.19,0.19,0.5,0.19,0.69,0l1.44-1.44l-0.9-4.4l5.66-5.58
					l6.15,11.18c0.25,0.25,0.66,0.25,0.92,0l2.31-2.31L116,162.23l4.58-4.29c1.26-1.26,1.32-3.25,0.13-4.44
					C119.53,152.32,117.54,152.38,116.28,153.64z"/>
			</g>
		</g>
	</g>
</g>
<g>
	<g>
		<g>
			<g>
				
					<linearGradient id="SVGID_21_" gradientUnits="userSpaceOnUse" x1="-210.2233" y1="-156.8555" x2="-165.4008" y2="-79.2205" gradientTransform="matrix(1 0 0 -1 0 88)">
					<stop  offset="0" style="stop-color:#0064E9"/>
					<stop  offset="0.3088" style="stop-color:#0096D1"/>
					<stop  offset="0.6175" style="stop-color:#00C1BD"/>
					<stop  offset="0.8577" style="stop-color:#00DBB1"/>
					<stop  offset="1" style="stop-color:#00E5AC"/>
				</linearGradient>
				<path class="st20" d="M-172.89,166.22c-11.84,0-21.48,9.63-21.48,21.48c0,0.7,0.03,1.38,0.1,2.06c-1.71-1.1-3.75-1.74-5.93-1.74
					c-6.06,0-10.98,4.93-10.98,10.98v0.42v1.86v4.01c0,3.11,1.3,5.92,3.38,7.92h-1.66c-7.58,0-13.74,6.17-13.74,13.74v9.53
					c0,0.85,0.69,1.53,1.53,1.53h42.95c0.85,0,1.53-0.69,1.53-1.53v-9.54c0-7.58-6.17-13.74-13.74-13.74h-1.66
					c2.08-2,3.38-4.81,3.38-7.92v-3.64c3.94,4.61,9.8,7.53,16.32,7.53c11.84,0,21.48-9.63,21.48-21.48
					C-151.41,175.84-161.04,166.22-172.89,166.22z M-208.11,199.41v-0.42c0-4.36,3.55-7.92,7.92-7.92c4.23,0,7.69,3.33,7.9,7.5
					l-4-2.35c-0.65-0.38-1.47-0.24-1.95,0.34c-1.68,2.02-4.16,3.18-6.78,3.18h-3.09V199.41z M-192.48,224.56
					c0.25,0,0.51-0.06,0.73-0.19c0.49-0.27,0.8-0.79,0.8-1.35v-6.41c0-0.12-0.02-0.24-0.04-0.35h0.06c5.89,0,10.68,4.79,10.68,10.68
					v8h-39.88v-8c0-5.89,4.79-10.68,10.68-10.68h0.02v6.76c0,0.56,0.31,1.08,0.8,1.35c0.49,0.27,1.09,0.25,1.56-0.06l5.35-3.44v3.33
					c0,0.85,0.69,1.53,1.53,1.53c0.85,0,1.53-0.69,1.53-1.53v-3.33l5.35,3.44C-193.06,224.48-192.77,224.56-192.48,224.56z
					 M-206.37,220.22v-3.95h12.39c-0.03,0.11-0.04,0.23-0.04,0.35v3.6l-5.35-3.44c-0.51-0.33-1.15-0.33-1.66,0L-206.37,220.22z
					 M-192.27,205.29c0,4.36-3.55,7.92-7.92,7.92c-4.36,0-7.92-3.55-7.92-7.92v-2.48h3.09c3.09,0,6.03-1.19,8.24-3.3l4.51,2.65
					L-192.27,205.29L-192.27,205.29z M-172.89,206.1c-10.15,0-18.41-8.26-18.41-18.41s8.26-18.41,18.41-18.41
					c10.15,0,18.41,8.26,18.41,18.41S-162.74,206.1-172.89,206.1z"/>
			</g>
		</g>
		<g>
			<g>
				
					<linearGradient id="SVGID_22_" gradientUnits="userSpaceOnUse" x1="-200.9582" y1="-143.1305" x2="-199.4251" y2="-140.4751" gradientTransform="matrix(1 0 0 -1 0 88)">
					<stop  offset="0" style="stop-color:#0064E9"/>
					<stop  offset="0.3088" style="stop-color:#0096D1"/>
					<stop  offset="0.6175" style="stop-color:#00C1BD"/>
					<stop  offset="0.8577" style="stop-color:#00DBB1"/>
					<stop  offset="1" style="stop-color:#00E5AC"/>
				</linearGradient>
				<path class="st21" d="M-199.11,228.72c-0.29-0.29-0.68-0.45-1.08-0.45c-0.4,0-0.8,0.16-1.08,0.45
					c-0.29,0.29-0.45,0.68-0.45,1.08c0,0.4,0.16,0.8,0.45,1.08c0.29,0.29,0.68,0.45,1.08,0.45c0.4,0,0.8-0.16,1.08-0.45
					c0.29-0.29,0.45-0.68,0.45-1.08C-198.66,229.4-198.82,229-199.11,228.72z"/>
			</g>
		</g>
		<g>
			<g>
				
					<linearGradient id="SVGID_23_" gradientUnits="userSpaceOnUse" x1="-190.0108" y1="-143.0147" x2="-186.7509" y2="-137.3682" gradientTransform="matrix(1 0 0 -1 0 88)">
					<stop  offset="0" style="stop-color:#0064E9"/>
					<stop  offset="0.3088" style="stop-color:#0096D1"/>
					<stop  offset="0.6175" style="stop-color:#00C1BD"/>
					<stop  offset="0.8577" style="stop-color:#00DBB1"/>
					<stop  offset="1" style="stop-color:#00E5AC"/>
				</linearGradient>
				<path class="st22" d="M-184.93,226.66h-6.9c-0.85,0-1.53,0.69-1.53,1.53s0.69,1.53,1.53,1.53h6.9c0.85,0,1.53-0.69,1.53-1.53
					S-184.08,226.66-184.93,226.66z"/>
			</g>
		</g>
		<g>
			<g>
				
					<linearGradient id="SVGID_24_" gradientUnits="userSpaceOnUse" x1="-185.2125" y1="-121.0302" x2="-158.7803" y2="-75.2485" gradientTransform="matrix(1 0 0 -1 0 88)">
					<stop  offset="0" style="stop-color:#0064E9"/>
					<stop  offset="0.3088" style="stop-color:#0096D1"/>
					<stop  offset="0.6175" style="stop-color:#00C1BD"/>
					<stop  offset="0.8577" style="stop-color:#00DBB1"/>
					<stop  offset="1" style="stop-color:#00E5AC"/>
				</linearGradient>
				<path class="st23" d="M-172.89,159.47c-6.73,0-13.24,2.41-18.34,6.77c-5.05,4.32-8.42,10.29-9.5,16.81
					c-0.14,0.84,0.43,1.63,1.26,1.76c0.84,0.14,1.63-0.43,1.76-1.26c2.02-12.17,12.46-21.01,24.82-21.01
					c13.87,0,25.16,11.29,25.16,25.16s-11.28,25.15-25.16,25.15c-0.85,0-1.53,0.69-1.53,1.53c0,0.84,0.69,1.53,1.53,1.53
					c15.56,0,28.23-12.66,28.23-28.23S-157.32,159.47-172.89,159.47z"/>
			</g>
		</g>
		<g>
			<g>
				
					<linearGradient id="SVGID_25_" gradientUnits="userSpaceOnUse" x1="-178.6904" y1="-127.2451" x2="-177.1534" y2="-124.5829" gradientTransform="matrix(1 0 0 -1 0 88)">
					<stop  offset="0" style="stop-color:#0064E9"/>
					<stop  offset="0.3088" style="stop-color:#0096D1"/>
					<stop  offset="0.6175" style="stop-color:#00C1BD"/>
					<stop  offset="0.8577" style="stop-color:#00DBB1"/>
					<stop  offset="1" style="stop-color:#00E5AC"/>
				</linearGradient>
				<path class="st24" d="M-177.62,212.41c-0.01,0-0.02,0-0.02,0c-0.83-0.16-1.63,0.38-1.79,1.21s0.38,1.64,1.21,1.8
					c0.1,0.02,0.2,0.03,0.3,0.03c0.72,0,1.36-0.5,1.5-1.23C-176.25,213.38-176.79,212.57-177.62,212.41z"/>
			</g>
		</g>
		<g>
			<g>
				
					<linearGradient id="SVGID_26_" gradientUnits="userSpaceOnUse" x1="-175.0307" y1="-100.2075" x2="-168.6096" y2="-89.0856" gradientTransform="matrix(1 0 0 -1 0 88)">
					<stop  offset="0" style="stop-color:#0064E9"/>
					<stop  offset="0.3088" style="stop-color:#0096D1"/>
					<stop  offset="0.6175" style="stop-color:#00C1BD"/>
					<stop  offset="0.8577" style="stop-color:#00DBB1"/>
					<stop  offset="1" style="stop-color:#00E5AC"/>
				</linearGradient>
				<path class="st25" d="M-164.62,179.45c-0.6-0.6-1.57-0.6-2.17,0l-6.07,6.07l-3.2-3.2c-0.6-0.6-1.57-0.6-2.17,0
					c-0.6,0.6-0.6,1.57,0,2.17l4.28,4.28c0.3,0.3,0.69,0.45,1.08,0.45s0.79-0.15,1.08-0.45l7.16-7.16
					C-164.02,181.02-164.02,180.05-164.62,179.45z"/>
			</g>
		</g>
		<g>
			<g>
				
					<linearGradient id="SVGID_27_" gradientUnits="userSpaceOnUse" x1="-173.8918" y1="-86.9484" x2="-171.8871" y2="-83.4759" gradientTransform="matrix(1 0 0 -1 0 88)">
					<stop  offset="0" style="stop-color:#0064E9"/>
					<stop  offset="0.3088" style="stop-color:#0096D1"/>
					<stop  offset="0.6175" style="stop-color:#00C1BD"/>
					<stop  offset="0.8577" style="stop-color:#00DBB1"/>
					<stop  offset="1" style="stop-color:#00E5AC"/>
				</linearGradient>
				<path class="st26" d="M-172.89,171.14c-0.85,0-1.53,0.69-1.53,1.53v1.09c0,0.85,0.69,1.53,1.53,1.53c0.84,0,1.53-0.69,1.53-1.53
					v-1.09C-171.35,171.83-172.04,171.14-172.89,171.14z"/>
			</g>
		</g>
		<g>
			<g>
				
					<linearGradient id="SVGID_28_" gradientUnits="userSpaceOnUse" x1="-173.8951" y1="-115.9041" x2="-171.8903" y2="-112.4316" gradientTransform="matrix(1 0 0 -1 0 88)">
					<stop  offset="0" style="stop-color:#0064E9"/>
					<stop  offset="0.3088" style="stop-color:#0096D1"/>
					<stop  offset="0.6175" style="stop-color:#00C1BD"/>
					<stop  offset="0.8577" style="stop-color:#00DBB1"/>
					<stop  offset="1" style="stop-color:#00E5AC"/>
				</linearGradient>
				<path class="st27" d="M-172.89,200.09c-0.85,0-1.53,0.69-1.53,1.53v1.09c0,0.85,0.69,1.53,1.53,1.53c0.84,0,1.53-0.69,1.53-1.53
					v-1.09C-171.35,200.78-172.04,200.09-172.89,200.09z"/>
			</g>
		</g>
		<g>
			<g>
				
					<linearGradient id="SVGID_29_" gradientUnits="userSpaceOnUse" x1="-159.311" y1="-101.2593" x2="-157.5051" y2="-98.1313" gradientTransform="matrix(1 0 0 -1 0 88)">
					<stop  offset="0" style="stop-color:#0064E9"/>
					<stop  offset="0.3088" style="stop-color:#0096D1"/>
					<stop  offset="0.6175" style="stop-color:#00C1BD"/>
					<stop  offset="0.8577" style="stop-color:#00DBB1"/>
					<stop  offset="1" style="stop-color:#00E5AC"/>
				</linearGradient>
				<path class="st28" d="M-157.86,186.16h-1.09c-0.85,0-1.53,0.69-1.53,1.53s0.69,1.53,1.53,1.53h1.09c0.85,0,1.53-0.69,1.53-1.53
					C-156.33,186.85-157.02,186.16-157.86,186.16z"/>
			</g>
		</g>
		<g>
			<g>
				
					<linearGradient id="SVGID_30_" gradientUnits="userSpaceOnUse" x1="-188.2695" y1="-101.2567" x2="-186.4636" y2="-98.1287" gradientTransform="matrix(1 0 0 -1 0 88)">
					<stop  offset="0" style="stop-color:#0064E9"/>
					<stop  offset="0.3088" style="stop-color:#0096D1"/>
					<stop  offset="0.6175" style="stop-color:#00C1BD"/>
					<stop  offset="0.8577" style="stop-color:#00DBB1"/>
					<stop  offset="1" style="stop-color:#00E5AC"/>
				</linearGradient>
				<path class="st29" d="M-186.82,186.16h-1.09c-0.85,0-1.53,0.69-1.53,1.53s0.69,1.53,1.53,1.53h1.09c0.85,0,1.53-0.69,1.53-1.53
					C-185.29,186.85-185.97,186.16-186.82,186.16z"/>
			</g>
		</g>
	</g>
</g>
<g>
	<path class="st30" d="M153.07-62.5h-5.02c-0.76,0-1.37-0.61-1.37-1.37v-5.02c0-0.76,0.61-1.37,1.37-1.37s1.37,0.61,1.37,1.37v3.65
		h3.65c0.76,0,1.37,0.61,1.37,1.37C154.43-63.11,153.82-62.5,153.07-62.5z"/>
	<path class="st30" d="M148.04-52c-6.54,0-11.87-5.32-11.87-11.87s5.32-11.87,11.87-11.87c6.54,0,11.87,5.32,11.87,11.87
		S154.59-52,148.04-52z M148.04-73c-5.03,0-9.13,4.1-9.13,9.13s4.1,9.13,9.13,9.13s9.13-4.1,9.13-9.13S153.08-73,148.04-73z"/>
	<path class="st30" d="M132.98-68.43H120.2c-2.26,0-4.11-1.84-4.11-4.11v-17.35c0-2.27,1.84-4.11,4.11-4.11h31.96
		c2.26,0,4.11,1.84,4.11,4.11v10.96c0,0.76-0.61,1.37-1.37,1.37s-1.37-0.61-1.37-1.37v-10.96c0-0.76-0.62-1.37-1.37-1.37H120.2
		c-0.75,0-1.37,0.61-1.37,1.37v17.35c0,0.76,0.62,1.37,1.37,1.37h12.78c0.76,0,1.37,0.61,1.37,1.37
		C134.35-69.05,133.73-68.43,132.98-68.43z"/>
	<path class="st30" d="M136.18-77.88c-0.74,0-1.48-0.17-2.15-0.51l-17.18-8.51c-0.68-0.34-0.95-1.16-0.62-1.84
		c0.34-0.68,1.15-0.96,1.84-0.62l17.18,8.51c0.57,0.28,1.29,0.28,1.85,0l17.19-8.51c0.68-0.34,1.5-0.06,1.84,0.62
		s0.06,1.5-0.62,1.84l-17.18,8.51C137.65-78.05,136.91-77.88,136.18-77.88L136.18-77.88z"/>
</g>
<g>
	<path class="st30" d="M226.04-36c-6.54,0-11.87-5.32-11.87-11.87s5.32-11.87,11.87-11.87s11.87,5.32,11.87,11.87
		S232.59-36,226.04-36z M226.04-57c-5.03,0-9.13,4.1-9.13,9.13s4.1,9.13,9.13,9.13s9.13-4.1,9.13-9.13S231.08-57,226.04-57z"/>
	<path class="st30" d="M224.67-42.39c-0.36,0-0.71-0.14-0.97-0.4l-3.65-3.65c-0.54-0.54-0.54-1.4,0-1.94s1.4-0.54,1.94,0l2.58,2.58
		l4.98-6.13c0.47-0.59,1.34-0.68,1.93-0.2s0.68,1.34,0.2,1.93l-5.93,7.3c-0.24,0.3-0.61,0.48-0.99,0.5
		C224.72-42.39,224.7-42.39,224.67-42.39L224.67-42.39z"/>
	<path class="st30" d="M210.98-52.43H198.2c-2.27,0-4.11-1.84-4.11-4.11v-17.35c0-2.27,1.84-4.11,4.11-4.11h31.96
		c2.27,0,4.11,1.84,4.11,4.11v10.96c0,0.76-0.61,1.37-1.37,1.37s-1.37-0.61-1.37-1.37v-10.96c0-0.76-0.61-1.37-1.37-1.37H198.2
		c-0.76,0-1.37,0.61-1.37,1.37v17.35c0,0.76,0.61,1.37,1.37,1.37h12.78c0.76,0,1.37,0.61,1.37,1.37S211.73-52.43,210.98-52.43z"/>
	<path class="st30" d="M214.18-61.88c-0.74,0-1.48-0.17-2.15-0.5l-17.18-8.51c-0.68-0.34-0.96-1.16-0.62-1.84
		c0.34-0.68,1.16-0.95,1.84-0.62l17.18,8.51c0.57,0.29,1.28,0.29,1.85,0l17.19-8.51c0.68-0.34,1.5-0.06,1.84,0.62
		s0.06,1.5-0.62,1.84l-17.18,8.51C215.65-62.05,214.91-61.88,214.18-61.88L214.18-61.88z"/>
</g>
<g>
	<g>
		<g>
			<linearGradient id="SVGID_31_" gradientUnits="userSpaceOnUse" x1="62.1504" y1="30.2134" x2="63.7725" y2="27.4038">
				<stop  offset="0" style="stop-color:#0064E9"/>
				<stop  offset="0.3088" style="stop-color:#0096D1"/>
				<stop  offset="0.6175" style="stop-color:#00C1BD"/>
				<stop  offset="0.8577" style="stop-color:#00DBB1"/>
				<stop  offset="1" style="stop-color:#00E5AC"/>
			</linearGradient>
			<path class="st31" d="M63.25,27.22l-0.07-0.01c-0.88-0.14-1.7,0.46-1.85,1.34c-0.14,0.88,0.46,1.7,1.34,1.85l0.06,0.01
				c0.09,0.01,0.18,0.02,0.26,0.02c0.77,0,1.46-0.56,1.59-1.35C64.73,28.2,64.13,27.37,63.25,27.22z"/>
		</g>
	</g>
	<g>
		<g>
			<linearGradient id="SVGID_32_" gradientUnits="userSpaceOnUse" x1="30.6438" y1="84.8187" x2="64.5475" y2="26.0958">
				<stop  offset="0" style="stop-color:#0064E9"/>
				<stop  offset="0.3088" style="stop-color:#0096D1"/>
				<stop  offset="0.6175" style="stop-color:#00C1BD"/>
				<stop  offset="0.8577" style="stop-color:#00DBB1"/>
				<stop  offset="1" style="stop-color:#00E5AC"/>
			</linearGradient>
			<path class="st32" d="M91.59,47.61c-1.88-1.88-4.93-1.88-6.8,0c-0.63,0.63-0.63,1.65,0,2.28c0.63,0.63,1.65,0.63,2.28,0
				c0.62-0.62,1.63-0.62,2.25,0c0.93,0.93,0.93,2.45,0,3.38c-0.64,0.64-1.49,0.99-2.4,0.99c-0.9,0-1.76-0.35-2.4-0.99c0,0,0,0,0,0
				c0.01-0.31,0.02-0.62,0.02-0.93c0-9.97-5.87-19.07-14.96-23.19c-0.81-0.37-1.76-0.01-2.13,0.8c-0.37,0.81-0.01,1.76,0.8,2.13
				c7.94,3.6,13.06,11.55,13.06,20.26c0,7.59-3.82,14.59-10.21,18.7c-0.46,0.3-0.74,0.81-0.74,1.35v7.65c0,0.53-0.43,0.97-0.97,0.97
				h-7.73c-0.53,0-0.97-0.43-0.97-0.97v-3.17c0-1.28-1.04-2.31-2.31-2.31H41.75c-1.28,0-2.31,1.04-2.31,2.31v3.17
				c0,0.53-0.43,0.97-0.97,0.97h-7.73c-0.53,0-0.97-0.43-0.97-0.97v-7.65c0-0.55-0.28-1.06-0.74-1.35
				c-4.61-2.97-7.95-7.5-9.41-12.76c-0.22-0.78-0.97-1.27-1.77-1.17c-0.08,0.01-0.16,0.03-0.24,0.05h-1.54
				c-1.15,0-2.09-0.94-2.09-2.09v-5.49c0-1.15,0.94-2.09,2.09-2.09h1.56c0.07,0.02,0.14,0.03,0.22,0.04
				c0.8,0.11,1.55-0.39,1.77-1.17c2.5-9.03,10.47-15.55,19.81-16.22c0.89-0.06,1.56-0.83,1.49-1.72c-0.06-0.89-0.83-1.55-1.72-1.49
				c-1.54,0.11-3.04,0.36-4.5,0.73c-0.93-4.34-4.8-7.61-9.41-7.61h-0.61c-0.89,0-1.61,0.72-1.61,1.61v12.63
				c-2.76,2.75-4.9,6.13-6.17,9.96h-0.82c-2.93,0-5.31,2.38-5.31,5.31v5.49c0,2.93,2.38,5.31,5.31,5.31h0.83
				c1.74,5.21,5.11,9.72,9.65,12.86v6.79c0,2.31,1.88,4.19,4.19,4.19h7.73c2.31,0,4.19-1.88,4.19-4.19v-2.26h14.82v2.26
				c0,2.31,1.88,4.19,4.19,4.19h7.73c2.31,0,4.19-1.88,4.19-4.19v-6.79c5.62-3.89,9.36-9.78,10.55-16.38
				c0.86,0.4,1.81,0.61,2.78,0.61c1.77,0,3.43-0.69,4.67-1.94C93.77,53.36,93.77,49.8,91.59,47.61z M26.3,23.38
				c2.73,0.43,4.89,2.59,5.33,5.32c-1.89,0.76-3.68,1.73-5.33,2.91V23.38z"/>
		</g>
	</g>
	<g>
		<g>
			<linearGradient id="SVGID_33_" gradientUnits="userSpaceOnUse" x1="28.2015" y1="44.4147" x2="29.8113" y2="41.6264">
				<stop  offset="0" style="stop-color:#0064E9"/>
				<stop  offset="0.3088" style="stop-color:#0096D1"/>
				<stop  offset="0.6175" style="stop-color:#00C1BD"/>
				<stop  offset="0.8577" style="stop-color:#00DBB1"/>
				<stop  offset="1" style="stop-color:#00E5AC"/>
			</linearGradient>
			<path class="st33" d="M30.15,41.88c-0.3-0.3-0.72-0.47-1.14-0.47c-0.43,0-0.84,0.17-1.14,0.47c-0.3,0.3-0.47,0.71-0.47,1.14
				c0,0.42,0.17,0.84,0.47,1.14c0.3,0.3,0.72,0.47,1.14,0.47c0.42,0,0.84-0.17,1.14-0.47c0.3-0.3,0.47-0.72,0.47-1.14
				C30.62,42.6,30.44,42.18,30.15,41.88z"/>
		</g>
	</g>
	<g>
		<g>
			<linearGradient id="SVGID_34_" gradientUnits="userSpaceOnUse" x1="47.5409" y1="43.04" x2="53.7239" y2="32.3307">
				<stop  offset="0" style="stop-color:#0064E9"/>
				<stop  offset="0.3088" style="stop-color:#0096D1"/>
				<stop  offset="0.6175" style="stop-color:#00C1BD"/>
				<stop  offset="0.8577" style="stop-color:#00DBB1"/>
				<stop  offset="1" style="stop-color:#00E5AC"/>
			</linearGradient>
			<path class="st34" d="M59.78,36.07H41.49c-0.89,0-1.61,0.72-1.61,1.61c0,0.89,0.72,1.61,1.61,1.61h18.29
				c0.89,0,1.61-0.72,1.61-1.61C61.39,36.8,60.67,36.07,59.78,36.07z"/>
		</g>
	</g>
	<g>
		<g>
			<linearGradient id="SVGID_35_" gradientUnits="userSpaceOnUse" x1="46.3654" y1="31.6432" x2="54.8994" y2="16.8619">
				<stop  offset="0" style="stop-color:#0064E9"/>
				<stop  offset="0.3088" style="stop-color:#0096D1"/>
				<stop  offset="0.6175" style="stop-color:#00C1BD"/>
				<stop  offset="0.8577" style="stop-color:#00DBB1"/>
				<stop  offset="1" style="stop-color:#00E5AC"/>
			</linearGradient>
			<path class="st35" d="M50.63,15.72c-4.71,0-8.54,3.83-8.54,8.54s3.83,8.54,8.54,8.54s8.54-3.83,8.54-8.54
				S55.34,15.72,50.63,15.72z M50.63,29.57c-2.93,0-5.31-2.38-5.31-5.31s2.38-5.31,5.31-5.31c2.93,0,5.31,2.38,5.31,5.31
				S53.56,29.57,50.63,29.57z"/>
		</g>
	</g>
	<g>
		<g>
			<linearGradient id="SVGID_36_" gradientUnits="userSpaceOnUse" x1="48.3201" y1="10.8556" x2="52.9392" y2="2.855">
				<stop  offset="0" style="stop-color:#0064E9"/>
				<stop  offset="0.3088" style="stop-color:#0096D1"/>
				<stop  offset="0.6175" style="stop-color:#00C1BD"/>
				<stop  offset="0.8577" style="stop-color:#00DBB1"/>
				<stop  offset="1" style="stop-color:#00E5AC"/>
			</linearGradient>
			<path class="st36" d="M50.63,1.77c-0.89,0-1.61,0.72-1.61,1.61v6.95c0,0.89,0.72,1.61,1.61,1.61c0.89,0,1.61-0.72,1.61-1.61V3.38
				C52.24,2.49,51.52,1.77,50.63,1.77z"/>
		</g>
	</g>
	<g>
		<g>
			<linearGradient id="SVGID_37_" gradientUnits="userSpaceOnUse" x1="59.6435" y1="15.1637" x2="64.1513" y2="7.3559">
				<stop  offset="0" style="stop-color:#0064E9"/>
				<stop  offset="0.3088" style="stop-color:#0096D1"/>
				<stop  offset="0.6175" style="stop-color:#00C1BD"/>
				<stop  offset="0.8577" style="stop-color:#00DBB1"/>
				<stop  offset="1" style="stop-color:#00E5AC"/>
			</linearGradient>
			<path class="st37" d="M65.16,8c-0.63-0.63-1.65-0.63-2.28,0l-4.24,4.24c-0.63,0.63-0.63,1.65,0,2.28
				c0.31,0.31,0.73,0.47,1.14,0.47c0.41,0,0.82-0.16,1.14-0.47l4.24-4.24C65.79,9.65,65.79,8.63,65.16,8z"/>
		</g>
	</g>
	<g>
		<g>
			<linearGradient id="SVGID_38_" gradientUnits="userSpaceOnUse" x1="38.1736" y1="13.3189" x2="40.5608" y2="9.1842">
				<stop  offset="0" style="stop-color:#0064E9"/>
				<stop  offset="0.3088" style="stop-color:#0096D1"/>
				<stop  offset="0.6175" style="stop-color:#00C1BD"/>
				<stop  offset="0.8577" style="stop-color:#00DBB1"/>
				<stop  offset="1" style="stop-color:#00E5AC"/>
			</linearGradient>
			<path class="st38" d="M42.63,12.23l-4.24-4.24c-0.63-0.63-1.65-0.63-2.28,0c-0.63,0.63-0.63,1.65,0,2.28l4.24,4.24
				c0.31,0.31,0.73,0.47,1.14,0.47s0.82-0.16,1.14-0.47C43.26,13.88,43.26,12.86,42.63,12.23z"/>
		</g>
	</g>
	<g>
		<g>
			<linearGradient id="SVGID_39_" gradientUnits="userSpaceOnUse" x1="31.8705" y1="62.7418" x2="38.6418" y2="51.0136">
				<stop  offset="0" style="stop-color:#0064E9"/>
				<stop  offset="0.3088" style="stop-color:#0096D1"/>
				<stop  offset="0.6175" style="stop-color:#00C1BD"/>
				<stop  offset="0.8577" style="stop-color:#00DBB1"/>
				<stop  offset="1" style="stop-color:#00E5AC"/>
			</linearGradient>
			<path class="st39" d="M38.76,51.33h-5.6c-0.89,0-1.61,0.72-1.61,1.61s0.72,1.61,1.61,1.61h1.19v8.69c0,0.89,0.72,1.61,1.61,1.61
				s1.61-0.72,1.61-1.61v-8.69h1.19c0.89,0,1.61-0.72,1.61-1.61S39.65,51.33,38.76,51.33z"/>
		</g>
	</g>
	<g>
		<g>
			<linearGradient id="SVGID_40_" gradientUnits="userSpaceOnUse" x1="45.6971" y1="66.1256" x2="52.7992" y2="53.8245">
				<stop  offset="0" style="stop-color:#0064E9"/>
				<stop  offset="0.3088" style="stop-color:#0096D1"/>
				<stop  offset="0.6175" style="stop-color:#00C1BD"/>
				<stop  offset="0.8577" style="stop-color:#00DBB1"/>
				<stop  offset="1" style="stop-color:#00E5AC"/>
			</linearGradient>
			<path class="st40" d="M53.93,62.62L49.67,52.4c-0.25-0.6-0.84-0.99-1.49-0.99s-1.24,0.39-1.49,0.99l-4.26,10.22
				c-0.34,0.82,0.05,1.76,0.87,2.11c0.82,0.34,1.76-0.05,2.11-0.87l0.25-0.59h5.05l0.25,0.59c0.26,0.62,0.86,0.99,1.49,0.99
				c0.21,0,0.42-0.04,0.62-0.12C53.88,64.39,54.27,63.44,53.93,62.62z M47,60.05l1.18-2.84l1.18,2.84H47z"/>
		</g>
	</g>
	<g>
		<g>
			<linearGradient id="SVGID_41_" gradientUnits="userSpaceOnUse" x1="58.9463" y1="64.8043" x2="66.6957" y2="51.382">
				<stop  offset="0" style="stop-color:#0064E9"/>
				<stop  offset="0.3088" style="stop-color:#0096D1"/>
				<stop  offset="0.6175" style="stop-color:#00C1BD"/>
				<stop  offset="0.8577" style="stop-color:#00DBB1"/>
				<stop  offset="1" style="stop-color:#00E5AC"/>
			</linearGradient>
			<path class="st41" d="M64.74,58.09l2.78-4.28c0.48-0.75,0.27-1.74-0.47-2.23c-0.75-0.49-1.74-0.27-2.23,0.47l-2,3.08l-2-3.08
				c-0.48-0.75-1.48-0.96-2.23-0.47c-0.75,0.48-0.96,1.48-0.47,2.23l2.78,4.28l-2.78,4.28c-0.48,0.75-0.27,1.74,0.47,2.23
				c0.27,0.18,0.58,0.26,0.88,0.26c0.53,0,1.04-0.26,1.35-0.73l2-3.08l2,3.08c0.31,0.47,0.82,0.73,1.35,0.73
				c0.3,0,0.61-0.08,0.88-0.26c0.75-0.48,0.96-1.48,0.47-2.23L64.74,58.09z"/>
		</g>
	</g>
</g>
</svg>
