<?xml version="1.0" encoding="utf-8"?>
<!-- Generator: Adobe Illustrator 23.1.0, SVG Export Plug-In . SVG Version: 6.00 Build 0)  -->
<svg version="1.1" id="Layer_1" xmlns="http://www.w3.org/2000/svg" xmlns:xlink="http://www.w3.org/1999/xlink" x="0px" y="0px"
	 viewBox="0 0 104 86" style="enable-background:new 0 0 104 86;" xml:space="preserve">
<style type="text/css">
	.st0{fill:url(#SVGID_1_);}
	.st1{fill:url(#SVGID_2_);}
	.st2{fill:url(#SVGID_3_);}
	.st3{fill:url(#SVGID_4_);}
	.st4{fill:url(#SVGID_5_);}
	.st5{fill:url(#SVGID_6_);}
	.st6{fill:url(#SVGID_7_);}
	.st7{fill:url(#SVGID_8_);}
	.st8{fill:url(#SVGID_9_);}
	.st9{fill:url(#SVGID_10_);}
	.st10{fill:url(#SVGID_11_);}
	.st11{fill:url(#SVGID_12_);}
	.st12{fill:url(#SVGID_13_);}
	.st13{fill:url(#SVGID_14_);}
	.st14{fill:url(#SVGID_15_);}
	.st15{fill:url(#SVGID_16_);}
	.st16{fill:url(#SVGID_17_);}
	.st17{fill:url(#SVGID_18_);}
	.st18{fill:url(#SVGID_19_);}
	.st19{fill:url(#SVGID_20_);}
	.st20{fill:url(#SVGID_21_);}
	.st21{fill:url(#SVGID_22_);}
	.st22{fill:url(#SVGID_23_);}
	.st23{fill:url(#SVGID_24_);}
	.st24{fill:url(#SVGID_25_);}
	.st25{fill:url(#SVGID_26_);}
	.st26{fill:url(#SVGID_27_);}
	.st27{fill:url(#SVGID_28_);}
	.st28{fill:url(#SVGID_29_);}
	.st29{fill:url(#SVGID_30_);}
	.st30{fill:#005985;}
</style>
<g>
	<g>
		<g>
			<g>
				<linearGradient id="SVGID_1_" gradientUnits="userSpaceOnUse" x1="-137.2181" y1="17.921" x2="-108.7423" y2="-31.4006">
					<stop  offset="0" style="stop-color:#0064E9"/>
					<stop  offset="0.3088" style="stop-color:#0096D1"/>
					<stop  offset="0.6175" style="stop-color:#00C1BD"/>
					<stop  offset="0.8577" style="stop-color:#00DBB1"/>
					<stop  offset="1" style="stop-color:#00E5AC"/>
				</linearGradient>
				<path class="st0" d="M-119.95-29.11l1.42,2.21c5.18-3.25,11.76-3.25,16.94,0l1.42-2.21C-106.21-32.96-113.93-32.96-119.95-29.11
					z"/>
			</g>
		</g>
		<g>
			<g>
				<linearGradient id="SVGID_2_" gradientUnits="userSpaceOnUse" x1="-147.9734" y1="26.5648" x2="-111.3661" y2="-36.841">
					<stop  offset="0" style="stop-color:#0064E9"/>
					<stop  offset="0.3088" style="stop-color:#0096D1"/>
					<stop  offset="0.6175" style="stop-color:#00C1BD"/>
					<stop  offset="0.8577" style="stop-color:#00DBB1"/>
					<stop  offset="1" style="stop-color:#00E5AC"/>
				</linearGradient>
				<path class="st1" d="M-125.8-13.64h-2.62c0,2.43,0.48,4.83,1.41,7.07l2.42-1.01C-125.39-9.5-125.81-11.56-125.8-13.64z"/>
			</g>
		</g>
		<g>
			<g>
				<linearGradient id="SVGID_3_" gradientUnits="userSpaceOnUse" x1="-126.1991" y1="36.7647" x2="-94.3922" y2="-18.3265">
					<stop  offset="0" style="stop-color:#0064E9"/>
					<stop  offset="0.3088" style="stop-color:#0096D1"/>
					<stop  offset="0.6175" style="stop-color:#00C1BD"/>
					<stop  offset="0.8577" style="stop-color:#00DBB1"/>
					<stop  offset="1" style="stop-color:#00E5AC"/>
				</linearGradient>
				<path class="st2" d="M-104.02,0.89c-1.92,0.8-3.97,1.21-6.05,1.21v2.62c2.43,0,4.83-0.48,7.06-1.41L-104.02,0.89z"/>
			</g>
		</g>
		<g>
			<g>
				<linearGradient id="SVGID_4_" gradientUnits="userSpaceOnUse" x1="-123.9525" y1="42.252" x2="-89.7213" y2="-17.0381">
					<stop  offset="0" style="stop-color:#0064E9"/>
					<stop  offset="0.3088" style="stop-color:#0096D1"/>
					<stop  offset="0.6175" style="stop-color:#00C1BD"/>
					<stop  offset="0.8577" style="stop-color:#00DBB1"/>
					<stop  offset="1" style="stop-color:#00E5AC"/>
				</linearGradient>
				<path class="st3" d="M-94.33-13.64c0,2.08-0.41,4.13-1.21,6.05l2.42,1.01c0.94-2.24,1.42-4.64,1.41-7.06L-94.33-13.64z"/>
			</g>
		</g>
		<g>
			<g>
				<linearGradient id="SVGID_5_" gradientUnits="userSpaceOnUse" x1="-136.3614" y1="31.9004" x2="-102.3294" y2="-27.0447">
					<stop  offset="0" style="stop-color:#0064E9"/>
					<stop  offset="0.3088" style="stop-color:#0096D1"/>
					<stop  offset="0.6175" style="stop-color:#00C1BD"/>
					<stop  offset="0.8577" style="stop-color:#00DBB1"/>
					<stop  offset="1" style="stop-color:#00E5AC"/>
				</linearGradient>
				<path class="st4" d="M-110.07-26.76c-7.24,0-13.11,5.87-13.11,13.11s5.87,13.11,13.11,13.11c7.24-0.01,13.11-5.88,13.11-13.11
					C-96.95-20.88-102.82-26.76-110.07-26.76z M-110.07-3.15c-5.79,0-10.49-4.7-10.49-10.49s4.7-10.49,10.49-10.49
					s10.49,4.7,10.49,10.49C-99.58-7.85-104.27-3.15-110.07-3.15z"/>
			</g>
		</g>
		<g>
			<g>
				<linearGradient id="SVGID_6_" gradientUnits="userSpaceOnUse" x1="-138.3723" y1="35.3887" x2="-101.7346" y2="-28.0696">
					<stop  offset="0" style="stop-color:#0064E9"/>
					<stop  offset="0.3088" style="stop-color:#0096D1"/>
					<stop  offset="0.6175" style="stop-color:#00C1BD"/>
					<stop  offset="0.8577" style="stop-color:#00DBB1"/>
					<stop  offset="1" style="stop-color:#00E5AC"/>
				</linearGradient>
				<path class="st5" d="M-107.18-14.06l-1.57-0.52v-3.37c0.73,0.25,1.24,0.91,1.31,1.69h2.62c-0.12-2.21-1.75-4.05-3.93-4.43v-0.82
					h-2.62v0.82c-2.18,0.38-3.82,2.21-3.93,4.43c0.05,1.42,1,2.64,2.36,3.04l1.57,0.52v3.36c-0.73-0.25-1.24-0.91-1.31-1.68h-2.62
					c0.12,2.21,1.75,4.05,3.93,4.43v0.82h2.62v-0.82c2.18-0.38,3.82-2.21,3.93-4.43C-104.87-12.43-105.82-13.66-107.18-14.06z
					 M-111.38-15.46l-0.75-0.25c-0.33-0.11-0.56-0.34-0.56-0.55c0.07-0.77,0.58-1.43,1.31-1.69V-15.46z M-108.75-9.33v-2.49
					l0.75,0.25c0.33,0.11,0.56,0.34,0.56,0.55C-107.51-10.25-108.02-9.59-108.75-9.33z"/>
			</g>
		</g>
		<g>
			<g>
				<linearGradient id="SVGID_7_" gradientUnits="userSpaceOnUse" x1="-123.9462" y1="38.9499" x2="-91.7699" y2="-16.7812">
					<stop  offset="0" style="stop-color:#0064E9"/>
					<stop  offset="0.3088" style="stop-color:#0096D1"/>
					<stop  offset="0.6175" style="stop-color:#00C1BD"/>
					<stop  offset="0.8577" style="stop-color:#00DBB1"/>
					<stop  offset="1" style="stop-color:#00E5AC"/>
				</linearGradient>
				<path class="st6" d="M-75.04,22.15l-4.32-4.32l4.32-4.32c0.51-0.51,0.51-1.34,0-1.85L-92.09-5.39c-0.51-0.51-1.34-0.51-1.85,0
					l-16.78,16.78L-128.81-6.7c-0.51-0.51-1.34-0.51-1.85,0l-17.05,17.05c-0.51,0.51-0.51,1.34,0,1.85l9.56,9.56h-15.2v2.62h17.05
					c0.18,0,0.35-0.04,0.52-0.11l8.93-3.83h19.4v5.25h-14.43c-0.72,0-1.31,0.59-1.31,1.31c0,0.51,0.3,0.98,0.76,1.19l17.05,7.87
					c0.43,0.2,0.93,0.15,1.31-0.13l22.71-16.39l3.45,3.45l-26.1,22.37h-7.15l-24.7-9.1c-0.15-0.05-0.3-0.08-0.45-0.08h-17.05v2.62
					h16.81l24.7,9.1c0.15,0.05,0.3,0.08,0.45,0.08h7.87c0.31,0,0.62-0.11,0.85-0.32l27.54-23.61c0.55-0.47,0.61-1.3,0.14-1.85
					C-74.99,22.2-75.02,22.18-75.04,22.15z M-127.11,17.84c-0.18,0-0.35,0.04-0.52,0.11l-0.32,0.13c1.29-3.36,5.07-5.03,8.43-3.74
					c1.64,0.63,2.95,1.89,3.64,3.5H-127.11z M-113.08,17.84c-1.15-3.9-4.73-6.57-8.79-6.56c-4.64,0.03-8.54,3.49-9.11,8.1l-4.1,1.75
					l-9.85-9.85l15.2-15.2l21.75,21.75H-113.08z M-104.96,33.37l-10.93-5.05h9.77c0.72,0,1.31-0.59,1.31-1.31V21l7.12,7.12
					L-104.96,33.37z M-104.7,17.42c0.5-2.8,2.94-4.84,5.78-4.83c3.25-0.01,5.89,2.63,5.9,5.88c0.01,2.85-2.03,5.29-4.82,5.8
					L-104.7,17.42z M-95.71,26.4c0.53-0.21,1.03-0.48,1.5-0.79l-1.33,0.96L-95.71,26.4z M-82.06,16.83l-11.56,8.35
					c3.68-2.93,4.29-8.3,1.35-11.98c-2.93-3.68-8.3-4.29-11.98-1.35c-1.14,0.91-2.03,2.09-2.58,3.44l-2.04-2.04l15.85-15.85
					l15.2,15.2L-82.06,16.83z"/>
			</g>
		</g>
	</g>
</g>
<g>
	<g>
		<linearGradient id="SVGID_8_" gradientUnits="userSpaceOnUse" x1="275.969" y1="105.6909" x2="312.232" y2="42.8815">
			<stop  offset="0" style="stop-color:#0064E9"/>
			<stop  offset="0.3088" style="stop-color:#0096D1"/>
			<stop  offset="0.6175" style="stop-color:#00C1BD"/>
			<stop  offset="0.8577" style="stop-color:#00DBB1"/>
			<stop  offset="1" style="stop-color:#00E5AC"/>
		</linearGradient>
		<path class="st7" d="M309.71,46.94c0-7.83-6.37-14.19-14.19-14.19c-7.83,0-14.19,6.37-14.19,14.19c0,3.26,1.12,6.26,2.97,8.66
			c-0.25,0.52-0.39,1.08-0.39,1.66v7.8c-1.49-2.38-4.12-3.93-7.05-3.93c-1.8,0-3.27,1.47-3.27,3.27c0,0.65,0.19,1.27,0.55,1.81
			l1.33,1.99c0.49,0.74,0.81,1.59,0.92,2.47l0.91,7.31c0.14,1.11,0.57,2.17,1.24,3.07l2.79,3.72v2.15h-2.58V105h28.39V86.94h-2.58
			v-2.28l1.9-3.8c0.44-0.89,0.68-1.89,0.68-2.88V57.26c0-0.58-0.15-1.15-0.39-1.66C308.59,53.2,309.71,50.2,309.71,46.94
			L309.71,46.94z M295.52,35.32c6.4,0,11.61,5.21,11.61,11.61s-5.21,11.61-11.61,11.61c-6.4,0-11.61-5.21-11.61-11.61
			S289.11,35.32,295.52,35.32z M304.55,89.52v2.58h-23.23v-2.58H304.55z M281.32,102.42v-7.74h23.23v7.74H281.32z M304.14,79.71
			l-2.17,4.34v2.89H283.9v-3.01l-3.31-4.41c-0.4-0.54-0.66-1.17-0.74-1.84l-0.91-7.31c-0.16-1.27-0.62-2.51-1.33-3.58l-1.33-1.99
			c-0.08-0.11-0.12-0.25-0.12-0.38c0-0.38,0.31-0.69,0.69-0.69c2.72,0,5.09,1.94,5.63,4.61l1.61,8.05l0.79,0.2
			c2.46,0.62,4.18,2.82,4.18,5.36v2.42h2.58v-2.42c0-3.38-2.08-6.34-5.16-7.54V57.88c0.79,0.65,1.66,1.21,2.58,1.69v13.18h2.58
			V60.58c0.83,0.24,1.69,0.4,2.58,0.49v11.68h2.58V61.06c0.89-0.08,1.75-0.25,2.58-0.49v12.16h2.58V59.56
			c0.92-0.47,1.79-1.03,2.58-1.69v20.1C304.55,78.57,304.41,79.17,304.14,79.71z"/>
		<linearGradient id="SVGID_9_" gradientUnits="userSpaceOnUse" x1="287.9905" y1="59.9703" x2="322.2628" y2="0.6089">
			<stop  offset="0" style="stop-color:#0064E9"/>
			<stop  offset="0.3088" style="stop-color:#0096D1"/>
			<stop  offset="0.6175" style="stop-color:#00C1BD"/>
			<stop  offset="0.8577" style="stop-color:#00DBB1"/>
			<stop  offset="1" style="stop-color:#00E5AC"/>
		</linearGradient>
		<path class="st8" d="M295.52,50.81c-0.71,0-1.29-0.58-1.29-1.29h-2.58c0,1.68,1.08,3.1,2.58,3.63v2.82h2.58v-2.58h2.58v-3.87
			c0-2.13-1.74-3.87-3.87-3.87c-0.71,0-1.29-0.58-1.29-1.29v-1.29h1.29c0.71,0,1.29,0.58,1.29,1.29h2.58c0-1.68-1.08-3.1-2.58-3.63
			V37.9h-2.58v2.58h-2.58v3.87c0,2.13,1.74,3.87,3.87,3.87c0.71,0,1.29,0.58,1.29,1.29v1.29H295.52z"/>
		<linearGradient id="SVGID_10_" gradientUnits="userSpaceOnUse" x1="314.266" y1="83.1983" x2="350.4258" y2="20.5676">
			<stop  offset="0" style="stop-color:#0064E9"/>
			<stop  offset="0.3088" style="stop-color:#0096D1"/>
			<stop  offset="0.6175" style="stop-color:#00C1BD"/>
			<stop  offset="0.8577" style="stop-color:#00DBB1"/>
			<stop  offset="1" style="stop-color:#00E5AC"/>
		</linearGradient>
		<path class="st9" d="M347.87,63.79l-1.33-1.99c-0.49-0.74-0.81-1.59-0.92-2.47l-0.91-7.31c-0.14-1.11-0.57-2.17-1.24-3.07
			l-2.79-3.72v-2.15h2.58V25h-28.39v18.06h2.58v2.28l-1.9,3.8c-0.44,0.89-0.68,1.89-0.68,2.88v20.72c0,0.26,0.03,0.51,0.08,0.76
			c-3.22,3.06-5.24,7.37-5.24,12.15c0,9.25,7.53,16.77,16.77,16.77c9.25,0,16.77-7.53,16.77-16.77c0-4.78-2.02-9.09-5.24-12.15
			c0.05-0.25,0.08-0.5,0.08-0.76v-7.8c1.49,2.38,4.12,3.93,7.05,3.93c1.8,0,3.27-1.47,3.27-3.27
			C348.42,64.95,348.23,64.33,347.87,63.79z M340.68,27.58v12.9h-23.23v-5.16h10.32v-2.58h-10.32v-5.16H340.68z M340.68,85.65
			c0,7.83-6.37,14.19-14.19,14.19c-7.83,0-14.19-6.37-14.19-14.19s6.37-14.19,14.19-14.19C334.31,71.45,340.68,77.82,340.68,85.65z
			 M345.15,66.29c-2.72,0-5.09-1.94-5.63-4.61l-1.61-8.05l-0.79-0.2c-2.46-0.62-4.18-2.82-4.18-5.36v-2.42h-2.58v2.42
			c0,3.38,2.08,6.34,5.16,7.54v15.93c-0.82-0.53-1.68-0.99-2.58-1.37V57.26h-2.58v12.08c-0.84-0.2-1.7-0.34-2.58-0.4V57.26h-2.58
			v11.68c-0.88,0.07-1.74,0.2-2.58,0.4V57.26h-2.58v12.91c-0.9,0.38-1.76,0.84-2.58,1.37V52.02c0-0.6,0.14-1.2,0.41-1.73l2.17-4.34
			v-2.89h18.06v3.01l3.31,4.41c0.4,0.54,0.66,1.17,0.74,1.84l0.91,7.31c0.16,1.27,0.62,2.51,1.33,3.58l1.33,1.99
			c0.08,0.11,0.12,0.25,0.12,0.38C345.84,65.98,345.53,66.29,345.15,66.29L345.15,66.29z"/>
		<linearGradient id="SVGID_11_" gradientUnits="userSpaceOnUse" x1="298.4431" y1="134.1912" x2="340.2627" y2="61.7576">
			<stop  offset="0" style="stop-color:#0064E9"/>
			<stop  offset="0.3088" style="stop-color:#0096D1"/>
			<stop  offset="0.6175" style="stop-color:#00C1BD"/>
			<stop  offset="0.8577" style="stop-color:#00DBB1"/>
			<stop  offset="1" style="stop-color:#00E5AC"/>
		</linearGradient>
		<path class="st10" d="M317.82,92.47l15.48-15.48l1.82,1.82L319.64,94.3L317.82,92.47z"/>
		<linearGradient id="SVGID_12_" gradientUnits="userSpaceOnUse" x1="304.771" y1="137.3539" x2="341.6834" y2="73.4198">
			<stop  offset="0" style="stop-color:#0064E9"/>
			<stop  offset="0.3088" style="stop-color:#0096D1"/>
			<stop  offset="0.6175" style="stop-color:#00C1BD"/>
			<stop  offset="0.8577" style="stop-color:#00DBB1"/>
			<stop  offset="1" style="stop-color:#00E5AC"/>
		</linearGradient>
		<path class="st11" d="M331.65,86.94c-2.13,0-3.87,1.74-3.87,3.87s1.74,3.87,3.87,3.87c2.13,0,3.87-1.74,3.87-3.87
			S333.78,86.94,331.65,86.94z M331.65,92.1c-0.71,0-1.29-0.58-1.29-1.29s0.58-1.29,1.29-1.29c0.71,0,1.29,0.58,1.29,1.29
			S332.36,92.1,331.65,92.1z"/>
		<linearGradient id="SVGID_13_" gradientUnits="userSpaceOnUse" x1="298.7194" y1="119.6337" x2="335.6318" y2="55.6996">
			<stop  offset="0" style="stop-color:#0064E9"/>
			<stop  offset="0.3088" style="stop-color:#0096D1"/>
			<stop  offset="0.6175" style="stop-color:#00C1BD"/>
			<stop  offset="0.8577" style="stop-color:#00DBB1"/>
			<stop  offset="1" style="stop-color:#00E5AC"/>
		</linearGradient>
		<path class="st12" d="M321.32,84.35c2.13,0,3.87-1.74,3.87-3.87c0-2.13-1.74-3.87-3.87-3.87c-2.13,0-3.87,1.74-3.87,3.87
			C317.45,82.62,319.19,84.35,321.32,84.35z M321.32,79.19c0.71,0,1.29,0.58,1.29,1.29c0,0.71-0.58,1.29-1.29,1.29
			c-0.71,0-1.29-0.58-1.29-1.29C320.03,79.77,320.61,79.19,321.32,79.19z"/>
		<linearGradient id="SVGID_14_" gradientUnits="userSpaceOnUse" x1="335.5725" y1="31.6998" x2="372.4849" y2="-32.2344">
			<stop  offset="0" style="stop-color:#0064E9"/>
			<stop  offset="0.3088" style="stop-color:#0096D1"/>
			<stop  offset="0.6175" style="stop-color:#00C1BD"/>
			<stop  offset="0.8577" style="stop-color:#00DBB1"/>
			<stop  offset="1" style="stop-color:#00E5AC"/>
		</linearGradient>
		<path class="st13" d="M334.23,37.9c2.13,0,3.87-1.74,3.87-3.87s-1.74-3.87-3.87-3.87s-3.87,1.74-3.87,3.87
			S332.09,37.9,334.23,37.9z M334.23,32.74c0.71,0,1.29,0.58,1.29,1.29s-0.58,1.29-1.29,1.29s-1.29-0.58-1.29-1.29
			S333.51,32.74,334.23,32.74z"/>
	</g>
</g>
<g>
	<g>
		<g>
			<g>
				<linearGradient id="SVGID_15_" gradientUnits="userSpaceOnUse" x1="29.3151" y1="88.3212" x2="78.401" y2="3.302">
					<stop  offset="0" style="stop-color:#0064E9"/>
					<stop  offset="0.3088" style="stop-color:#0096D1"/>
					<stop  offset="0.6175" style="stop-color:#00C1BD"/>
					<stop  offset="0.8577" style="stop-color:#00DBB1"/>
					<stop  offset="1" style="stop-color:#00E5AC"/>
				</linearGradient>
				<path class="st14" d="M94.85,22.42l-1.13-6.39c-0.83-4.73-5.25-8.15-10.51-8.15c-0.71,0-1.42,0.06-2.12,0.19L12.5,20.16
					c-6,1.06-10.11,6.36-9.15,11.81l0.08,0.43v35.22c0,5.79,5.2,10.5,11.58,10.5H89.2c6.39,0,11.58-4.71,11.58-10.5V31.58
					C100.78,27.65,98.39,24.22,94.85,22.42z M82.13,13.93c0.36-0.06,0.73-0.1,1.09-0.1c2.36,0,4.32,1.36,4.65,3.23l0.71,4.01H41.58
					L82.13,13.93z M94.83,67.62c0,2.51-2.52,4.55-5.63,4.55H15.02c-3.1,0-5.63-2.04-5.63-4.55V31.58c0-2.51,2.52-4.55,5.63-4.55
					H89.2c3.1,0,5.63,2.04,5.63,4.55V67.62z"/>
				<linearGradient id="SVGID_16_" gradientUnits="userSpaceOnUse" x1="31.0173" y1="57.9353" x2="34.7251" y2="51.5132">
					<stop  offset="0" style="stop-color:#0064E9"/>
					<stop  offset="0.3088" style="stop-color:#0096D1"/>
					<stop  offset="0.6175" style="stop-color:#00C1BD"/>
					<stop  offset="0.8577" style="stop-color:#00DBB1"/>
					<stop  offset="1" style="stop-color:#00E5AC"/>
				</linearGradient>
				<rect x="29.89" y="52.16" class="st15" width="5.95" height="5.12"/>
				<linearGradient id="SVGID_17_" gradientUnits="userSpaceOnUse" x1="31.0173" y1="68.1863" x2="34.7251" y2="61.7643">
					<stop  offset="0" style="stop-color:#0064E9"/>
					<stop  offset="0.3088" style="stop-color:#0096D1"/>
					<stop  offset="0.6175" style="stop-color:#00C1BD"/>
					<stop  offset="0.8577" style="stop-color:#00DBB1"/>
					<stop  offset="1" style="stop-color:#00E5AC"/>
				</linearGradient>
				<rect x="29.89" y="62.41" class="st16" width="5.95" height="5.12"/>
				<linearGradient id="SVGID_18_" gradientUnits="userSpaceOnUse" x1="31.0173" y1="37.4362" x2="34.7251" y2="31.0141">
					<stop  offset="0" style="stop-color:#0064E9"/>
					<stop  offset="0.3088" style="stop-color:#0096D1"/>
					<stop  offset="0.6175" style="stop-color:#00C1BD"/>
					<stop  offset="0.8577" style="stop-color:#00DBB1"/>
					<stop  offset="1" style="stop-color:#00E5AC"/>
				</linearGradient>
				<rect x="29.89" y="31.66" class="st17" width="5.95" height="5.12"/>
				<linearGradient id="SVGID_19_" gradientUnits="userSpaceOnUse" x1="31.0173" y1="47.6855" x2="34.7251" y2="41.2634">
					<stop  offset="0" style="stop-color:#0064E9"/>
					<stop  offset="0.3088" style="stop-color:#0096D1"/>
					<stop  offset="0.6175" style="stop-color:#00C1BD"/>
					<stop  offset="0.8577" style="stop-color:#00DBB1"/>
					<stop  offset="1" style="stop-color:#00E5AC"/>
				</linearGradient>
				<rect x="29.89" y="41.91" class="st18" width="5.95" height="5.12"/>
				<linearGradient id="SVGID_20_" gradientUnits="userSpaceOnUse" x1="60.6433" y1="62.3201" x2="75.7713" y2="36.1176">
					<stop  offset="0" style="stop-color:#0064E9"/>
					<stop  offset="0.3088" style="stop-color:#0096D1"/>
					<stop  offset="0.6175" style="stop-color:#00C1BD"/>
					<stop  offset="0.8577" style="stop-color:#00DBB1"/>
					<stop  offset="1" style="stop-color:#00E5AC"/>
				</linearGradient>
				<path class="st19" d="M75.28,38.64l-4.32,4.61l-13.7-4.1l-2.31,2.31c-0.25,0.25-0.25,0.66,0,0.92l11.11,6.11l-5.59,5.68
					l-4.32-0.88l-1.44,1.44c-0.19,0.19-0.19,0.5,0,0.69l8.15,8.15c0.19,0.19,0.5,0.19,0.69,0L65,62.14l-0.9-4.4l5.66-5.58
					l6.15,11.18c0.25,0.25,0.66,0.25,0.92,0l2.31-2.31l-4.13-13.79l4.58-4.29c1.26-1.26,1.32-3.25,0.13-4.44
					C78.53,37.32,76.54,37.38,75.28,38.64z"/>
			</g>
		</g>
	</g>
</g>
<g>
	<g>
		<g>
			<g>
				<linearGradient id="SVGID_21_" gradientUnits="userSpaceOnUse" x1="-120.2905" y1="174.1162" x2="-75.4694" y2="96.4837">
					<stop  offset="0" style="stop-color:#0064E9"/>
					<stop  offset="0.3088" style="stop-color:#0096D1"/>
					<stop  offset="0.6175" style="stop-color:#00C1BD"/>
					<stop  offset="0.8577" style="stop-color:#00DBB1"/>
					<stop  offset="1" style="stop-color:#00E5AC"/>
				</linearGradient>
				<path class="st20" d="M-82.96,95.48c-11.84,0-21.48,9.63-21.48,21.48c0,0.7,0.03,1.38,0.1,2.06c-1.71-1.1-3.75-1.74-5.93-1.74
					c-6.06,0-10.98,4.93-10.98,10.98v0.42v1.86v4.01c0,3.11,1.3,5.92,3.38,7.92h-1.66c-7.58,0-13.74,6.17-13.74,13.74v9.53
					c0,0.85,0.69,1.53,1.53,1.53h42.95c0.85,0,1.53-0.69,1.53-1.53v-9.53c0-7.58-6.17-13.74-13.74-13.74h-1.66
					c2.08-2,3.38-4.81,3.38-7.92v-3.65c3.94,4.61,9.8,7.53,16.32,7.53c11.84,0,21.48-9.63,21.48-21.48S-71.11,95.48-82.96,95.48z
					 M-118.18,128.67v-0.42c0-4.36,3.55-7.92,7.92-7.92c4.23,0,7.69,3.33,7.9,7.5l-4-2.35c-0.65-0.38-1.47-0.24-1.95,0.34
					c-1.69,2.01-4.16,3.16-6.78,3.16h-3.09V128.67z M-102.55,153.82c0.25,0,0.51-0.06,0.73-0.19c0.49-0.27,0.8-0.79,0.8-1.35v-6.41
					c0-0.12-0.02-0.24-0.04-0.35h0.06c5.89,0,10.68,4.79,10.68,10.68v8h-39.88v-8c0-5.89,4.79-10.68,10.68-10.68h0.02v6.76
					c0,0.56,0.31,1.08,0.8,1.35c0.49,0.27,1.09,0.25,1.56-0.06l5.35-3.44v3.33c0,0.85,0.69,1.53,1.53,1.53
					c0.85,0,1.53-0.69,1.53-1.53v-3.33l5.35,3.44C-103.13,153.74-102.84,153.82-102.55,153.82z M-116.44,149.48v-3.95h12.39
					c-0.03,0.11-0.04,0.23-0.04,0.35v3.6l-5.35-3.44c-0.51-0.33-1.15-0.33-1.66,0L-116.44,149.48z M-102.34,134.55
					c0,4.36-3.55,7.92-7.92,7.92c-4.36,0-7.92-3.55-7.92-7.92v-2.48h3.09c3.09,0,6.03-1.19,8.24-3.3l4.51,2.65V134.55
					L-102.34,134.55z M-82.96,135.36c-10.15,0-18.41-8.26-18.41-18.41s8.26-18.41,18.41-18.41s18.41,8.26,18.41,18.41
					S-72.81,135.36-82.96,135.36z"/>
			</g>
		</g>
		<g>
			<g>
				<linearGradient id="SVGID_22_" gradientUnits="userSpaceOnUse" x1="-111.0269" y1="160.3911" x2="-109.4938" y2="157.7358">
					<stop  offset="0" style="stop-color:#0064E9"/>
					<stop  offset="0.3088" style="stop-color:#0096D1"/>
					<stop  offset="0.6175" style="stop-color:#00C1BD"/>
					<stop  offset="0.8577" style="stop-color:#00DBB1"/>
					<stop  offset="1" style="stop-color:#00E5AC"/>
				</linearGradient>
				<path class="st21" d="M-109.18,157.98c-0.29-0.29-0.68-0.45-1.08-0.45c-0.4,0-0.8,0.16-1.08,0.45s-0.45,0.68-0.45,1.08
					s0.16,0.8,0.45,1.08s0.68,0.45,1.08,0.45c0.4,0,0.8-0.16,1.08-0.45c0.29-0.29,0.45-0.68,0.45-1.08S-108.89,158.26-109.18,157.98
					z"/>
			</g>
		</g>
		<g>
			<g>
				<linearGradient id="SVGID_23_" gradientUnits="userSpaceOnUse" x1="-100.0786" y1="160.276" x2="-96.8186" y2="154.6295">
					<stop  offset="0" style="stop-color:#0064E9"/>
					<stop  offset="0.3088" style="stop-color:#0096D1"/>
					<stop  offset="0.6175" style="stop-color:#00C1BD"/>
					<stop  offset="0.8577" style="stop-color:#00DBB1"/>
					<stop  offset="1" style="stop-color:#00E5AC"/>
				</linearGradient>
				<path class="st22" d="M-95,155.92h-6.9c-0.85,0-1.53,0.69-1.53,1.53s0.69,1.53,1.53,1.53h6.9c0.85,0,1.53-0.69,1.53-1.53
					S-94.15,155.92-95,155.92z"/>
			</g>
		</g>
		<g>
			<g>
				<linearGradient id="SVGID_24_" gradientUnits="userSpaceOnUse" x1="-95.283" y1="138.301" x2="-68.848" y2="92.5143">
					<stop  offset="0" style="stop-color:#0064E9"/>
					<stop  offset="0.3088" style="stop-color:#0096D1"/>
					<stop  offset="0.6175" style="stop-color:#00C1BD"/>
					<stop  offset="0.8577" style="stop-color:#00DBB1"/>
					<stop  offset="1" style="stop-color:#00E5AC"/>
				</linearGradient>
				<path class="st23" d="M-82.96,88.73c-6.73,0-13.24,2.41-18.34,6.77c-5.05,4.32-8.42,10.29-9.5,16.81
					c-0.14,0.84,0.43,1.63,1.26,1.76c0.84,0.14,1.63-0.43,1.76-1.26c2.02-12.18,12.45-21.01,24.82-21.01
					c13.87,0,25.16,11.29,25.16,25.16s-11.29,25.16-25.16,25.16c-0.85,0-1.53,0.69-1.53,1.53s0.69,1.53,1.53,1.53
					c15.56,0,28.23-12.66,28.23-28.23S-67.39,88.73-82.96,88.73z"/>
			</g>
		</g>
		<g>
			<g>
				<linearGradient id="SVGID_25_" gradientUnits="userSpaceOnUse" x1="-88.7641" y1="144.5009" x2="-87.2286" y2="141.8414">
					<stop  offset="0" style="stop-color:#0064E9"/>
					<stop  offset="0.3088" style="stop-color:#0096D1"/>
					<stop  offset="0.6175" style="stop-color:#00C1BD"/>
					<stop  offset="0.8577" style="stop-color:#00DBB1"/>
					<stop  offset="1" style="stop-color:#00E5AC"/>
				</linearGradient>
				<path class="st24" d="M-87.69,141.67c-0.01,0-0.02,0-0.02,0c-0.83-0.16-1.63,0.38-1.79,1.21c-0.16,0.83,0.38,1.64,1.21,1.8
					c0.1,0.02,0.2,0.03,0.3,0.03c0.72,0,1.36-0.5,1.5-1.23C-86.32,142.64-86.86,141.83-87.69,141.67z"/>
			</g>
		</g>
		<g>
			<g>
				<linearGradient id="SVGID_26_" gradientUnits="userSpaceOnUse" x1="-85.0956" y1="117.4766" x2="-78.6715" y2="106.3496">
					<stop  offset="0" style="stop-color:#0064E9"/>
					<stop  offset="0.3088" style="stop-color:#0096D1"/>
					<stop  offset="0.6175" style="stop-color:#00C1BD"/>
					<stop  offset="0.8577" style="stop-color:#00DBB1"/>
					<stop  offset="1" style="stop-color:#00E5AC"/>
				</linearGradient>
				<path class="st25" d="M-74.69,108.71c-0.6-0.6-1.57-0.6-2.17,0l-6.07,6.07l-3.2-3.2c-0.6-0.6-1.57-0.6-2.17,0
					c-0.6,0.6-0.6,1.57,0,2.17l4.28,4.28c0.3,0.3,0.69,0.45,1.08,0.45s0.79-0.15,1.08-0.45l7.16-7.16
					C-74.09,110.28-74.09,109.31-74.69,108.71z"/>
			</g>
		</g>
		<g>
			<g>
				<linearGradient id="SVGID_27_" gradientUnits="userSpaceOnUse" x1="-83.9576" y1="104.2145" x2="-81.9528" y2="100.742">
					<stop  offset="0" style="stop-color:#0064E9"/>
					<stop  offset="0.3088" style="stop-color:#0096D1"/>
					<stop  offset="0.6175" style="stop-color:#00C1BD"/>
					<stop  offset="0.8577" style="stop-color:#00DBB1"/>
					<stop  offset="1" style="stop-color:#00E5AC"/>
				</linearGradient>
				<path class="st26" d="M-82.96,100.4c-0.85,0-1.53,0.69-1.53,1.53v1.09c0,0.85,0.69,1.53,1.53,1.53s1.53-0.69,1.53-1.53v-1.09
					C-81.42,101.09-82.11,100.4-82.96,100.4z"/>
			</g>
		</g>
		<g>
			<g>
				<linearGradient id="SVGID_28_" gradientUnits="userSpaceOnUse" x1="-83.9576" y1="133.1684" x2="-81.9528" y2="129.696">
					<stop  offset="0" style="stop-color:#0064E9"/>
					<stop  offset="0.3088" style="stop-color:#0096D1"/>
					<stop  offset="0.6175" style="stop-color:#00C1BD"/>
					<stop  offset="0.8577" style="stop-color:#00DBB1"/>
					<stop  offset="1" style="stop-color:#00E5AC"/>
				</linearGradient>
				<path class="st27" d="M-82.96,129.35c-0.85,0-1.53,0.69-1.53,1.53v1.09c0,0.85,0.69,1.53,1.53,1.53s1.53-0.69,1.53-1.53v-1.09
					C-81.42,130.04-82.11,129.35-82.96,129.35z"/>
			</g>
		</g>
		<g>
			<g>
				<linearGradient id="SVGID_29_" gradientUnits="userSpaceOnUse" x1="-69.3812" y1="118.5192" x2="-67.5753" y2="115.3912">
					<stop  offset="0" style="stop-color:#0064E9"/>
					<stop  offset="0.3088" style="stop-color:#0096D1"/>
					<stop  offset="0.6175" style="stop-color:#00C1BD"/>
					<stop  offset="0.8577" style="stop-color:#00DBB1"/>
					<stop  offset="1" style="stop-color:#00E5AC"/>
				</linearGradient>
				<path class="st28" d="M-67.93,115.42h-1.09c-0.85,0-1.53,0.69-1.53,1.53c0,0.85,0.69,1.53,1.53,1.53h1.09
					c0.85,0,1.53-0.69,1.53-1.53C-66.4,116.11-67.09,115.42-67.93,115.42z"/>
			</g>
		</g>
		<g>
			<g>
				<linearGradient id="SVGID_30_" gradientUnits="userSpaceOnUse" x1="-98.3351" y1="118.5192" x2="-96.5292" y2="115.3912">
					<stop  offset="0" style="stop-color:#0064E9"/>
					<stop  offset="0.3088" style="stop-color:#0096D1"/>
					<stop  offset="0.6175" style="stop-color:#00C1BD"/>
					<stop  offset="0.8577" style="stop-color:#00DBB1"/>
					<stop  offset="1" style="stop-color:#00E5AC"/>
				</linearGradient>
				<path class="st29" d="M-96.89,115.42h-1.09c-0.85,0-1.53,0.69-1.53,1.53c0,0.85,0.69,1.53,1.53,1.53h1.09
					c0.85,0,1.53-0.69,1.53-1.53C-95.35,116.11-96.04,115.42-96.89,115.42z"/>
			</g>
		</g>
	</g>
</g>
<g>
	<path class="st30" d="M153.07-62.5h-5.02c-0.76,0-1.37-0.61-1.37-1.37v-5.02c0-0.76,0.61-1.37,1.37-1.37
		c0.76,0,1.37,0.61,1.37,1.37v3.65h3.65c0.76,0,1.37,0.61,1.37,1.37C154.43-63.11,153.82-62.5,153.07-62.5z"/>
	<path class="st30" d="M148.04-52c-6.54,0-11.87-5.32-11.87-11.87s5.32-11.87,11.87-11.87c6.54,0,11.87,5.32,11.87,11.87
		S154.59-52,148.04-52z M148.04-73c-5.03,0-9.13,4.1-9.13,9.13s4.1,9.13,9.13,9.13c5.03,0,9.13-4.1,9.13-9.13S153.08-73,148.04-73z"
		/>
	<path class="st30" d="M132.98-68.43H120.2c-2.26,0-4.11-1.84-4.11-4.11v-17.35c0-2.27,1.84-4.11,4.11-4.11h31.96
		c2.26,0,4.11,1.84,4.11,4.11v10.96c0,0.76-0.61,1.37-1.37,1.37c-0.76,0-1.37-0.61-1.37-1.37v-10.96c0-0.76-0.62-1.37-1.37-1.37
		H120.2c-0.75,0-1.37,0.61-1.37,1.37v17.35c0,0.76,0.62,1.37,1.37,1.37h12.78c0.76,0,1.37,0.61,1.37,1.37
		C134.35-69.05,133.73-68.43,132.98-68.43z"/>
	<path class="st30" d="M136.18-77.88c-0.74,0-1.48-0.17-2.15-0.51l-17.18-8.51c-0.68-0.34-0.95-1.16-0.62-1.84
		c0.34-0.68,1.15-0.96,1.84-0.62l17.18,8.51c0.57,0.28,1.29,0.28,1.85,0l17.19-8.51c0.68-0.34,1.5-0.06,1.84,0.62
		c0.34,0.68,0.06,1.5-0.62,1.84l-17.18,8.51C137.65-78.05,136.91-77.88,136.18-77.88L136.18-77.88z"/>
</g>
<g>
	<path class="st30" d="M226.04-36c-6.54,0-11.87-5.32-11.87-11.87s5.32-11.87,11.87-11.87s11.87,5.32,11.87,11.87
		S232.59-36,226.04-36z M226.04-57c-5.03,0-9.13,4.1-9.13,9.13s4.1,9.13,9.13,9.13c5.03,0,9.13-4.1,9.13-9.13S231.08-57,226.04-57z"
		/>
	<path class="st30" d="M224.67-42.39c-0.36,0-0.71-0.14-0.97-0.4l-3.65-3.65c-0.54-0.54-0.54-1.4,0-1.94s1.4-0.54,1.94,0l2.58,2.58
		l4.98-6.13c0.47-0.59,1.34-0.68,1.93-0.2c0.59,0.48,0.68,1.34,0.2,1.93l-5.93,7.3c-0.24,0.3-0.61,0.48-0.99,0.5
		C224.72-42.39,224.7-42.39,224.67-42.39L224.67-42.39z"/>
	<path class="st30" d="M210.98-52.43H198.2c-2.27,0-4.11-1.84-4.11-4.11v-17.35c0-2.27,1.84-4.11,4.11-4.11h31.96
		c2.27,0,4.11,1.84,4.11,4.11v10.96c0,0.76-0.61,1.37-1.37,1.37s-1.37-0.61-1.37-1.37v-10.96c0-0.76-0.61-1.37-1.37-1.37H198.2
		c-0.76,0-1.37,0.61-1.37,1.37v17.35c0,0.76,0.61,1.37,1.37,1.37h12.78c0.76,0,1.37,0.61,1.37,1.37S211.73-52.43,210.98-52.43z"/>
	<path class="st30" d="M214.18-61.88c-0.74,0-1.48-0.17-2.15-0.5l-17.18-8.51c-0.68-0.34-0.96-1.16-0.62-1.84
		c0.34-0.68,1.16-0.95,1.84-0.62l17.18,8.51c0.57,0.29,1.28,0.29,1.85,0l17.19-8.51c0.68-0.34,1.5-0.06,1.84,0.62
		c0.34,0.68,0.06,1.5-0.62,1.84l-17.18,8.51C215.65-62.05,214.91-61.88,214.18-61.88L214.18-61.88z"/>
</g>
</svg>
