<?xml version="1.0" encoding="utf-8"?>
<!-- Generator: Adobe Illustrator 23.1.0, SVG Export Plug-In . SVG Version: 6.00 Build 0)  -->
<svg version="1.1" id="Layer_1" xmlns="http://www.w3.org/2000/svg" xmlns:xlink="http://www.w3.org/1999/xlink" x="0px" y="0px"
	 viewBox="0 0 104 86" style="enable-background:new 0 0 104 86;" xml:space="preserve">
<style type="text/css">
	.st0{fill:url(#SVGID_1_);}
	.st1{fill:url(#SVGID_2_);}
	.st2{fill:url(#SVGID_3_);}
	.st3{fill:url(#SVGID_4_);}
	.st4{fill:url(#SVGID_5_);}
	.st5{fill:url(#SVGID_6_);}
	.st6{fill:url(#SVGID_7_);}
	.st7{fill:url(#SVGID_8_);}
	.st8{fill:url(#SVGID_9_);}
	.st9{fill:url(#SVGID_10_);}
</style>
<g>
	<g>
		<g>
			<g>
				
					<linearGradient id="SVGID_1_" gradientUnits="userSpaceOnUse" x1="25.7067" y1="-1.1155" x2="70.5292" y2="76.5195" gradientTransform="matrix(1 0 0 -1 0 88)">
					<stop  offset="0" style="stop-color:#0064E9"/>
					<stop  offset="0.3088" style="stop-color:#0096D1"/>
					<stop  offset="0.6175" style="stop-color:#00C1BD"/>
					<stop  offset="0.8577" style="stop-color:#00DBB1"/>
					<stop  offset="1" style="stop-color:#00E5AC"/>
				</linearGradient>
				<path class="st0" d="M63.04,10.48c-11.84,0-21.48,9.63-21.48,21.48c0,0.7,0.03,1.38,0.1,2.06c-1.71-1.1-3.75-1.74-5.93-1.74
					c-6.06,0-10.98,4.93-10.98,10.98v0.42v1.86v4.01c0,3.11,1.3,5.92,3.38,7.92h-1.66c-7.58,0-13.74,6.17-13.74,13.74v9.53
					c0,0.85,0.69,1.53,1.53,1.53h42.95c0.85,0,1.53-0.69,1.53-1.53V71.2c0-7.58-6.17-13.74-13.74-13.74h-1.66
					c2.08-2,3.38-4.81,3.38-7.92V45.9c3.94,4.61,9.8,7.53,16.32,7.53c11.84,0,21.48-9.63,21.48-21.48S74.89,10.48,63.04,10.48z
					 M27.82,43.67v-0.42c0-4.36,3.55-7.92,7.92-7.92c4.23,0,7.69,3.33,7.9,7.5l-4-2.35c-0.65-0.38-1.47-0.24-1.95,0.34
					C36.01,42.84,33.53,44,30.91,44h-3.09V43.67z M43.45,68.82c0.25,0,0.51-0.06,0.73-0.19c0.49-0.27,0.8-0.79,0.8-1.35v-6.41
					c0-0.12-0.02-0.24-0.04-0.35H45c5.89,0,10.68,4.79,10.68,10.68v8H15.8v-8c0-5.89,4.79-10.68,10.68-10.68h0.02v6.76
					c0,0.56,0.31,1.08,0.8,1.35s1.09,0.25,1.56-0.06l5.35-3.44v3.33c0,0.85,0.69,1.53,1.53,1.53c0.85,0,1.53-0.69,1.53-1.53v-3.33
					l5.35,3.44C42.87,68.74,43.16,68.82,43.45,68.82z M29.56,64.48v-3.95h12.39c-0.03,0.11-0.04,0.23-0.04,0.35v3.6l-5.35-3.44
					c-0.51-0.33-1.15-0.33-1.66,0L29.56,64.48z M43.66,49.55c0,4.36-3.55,7.92-7.92,7.92c-4.36,0-7.92-3.55-7.92-7.92v-2.48h3.09
					c3.09,0,6.03-1.19,8.24-3.3l4.51,2.65L43.66,49.55L43.66,49.55z M63.04,50.36c-10.15,0-18.41-8.26-18.41-18.41
					s8.26-18.41,18.41-18.41s18.41,8.26,18.41,18.41S73.19,50.36,63.04,50.36z"/>
			</g>
		</g>
		<g>
			<g>
				
					<linearGradient id="SVGID_2_" gradientUnits="userSpaceOnUse" x1="34.9718" y1="12.6095" x2="36.5049" y2="15.2649" gradientTransform="matrix(1 0 0 -1 0 88)">
					<stop  offset="0" style="stop-color:#0064E9"/>
					<stop  offset="0.3088" style="stop-color:#0096D1"/>
					<stop  offset="0.6175" style="stop-color:#00C1BD"/>
					<stop  offset="0.8577" style="stop-color:#00DBB1"/>
					<stop  offset="1" style="stop-color:#00E5AC"/>
				</linearGradient>
				<path class="st1" d="M36.82,72.98c-0.29-0.29-0.68-0.45-1.08-0.45s-0.8,0.16-1.08,0.45c-0.29,0.29-0.45,0.68-0.45,1.08
					s0.16,0.8,0.45,1.08c0.29,0.29,0.68,0.45,1.08,0.45s0.8-0.16,1.08-0.45c0.29-0.29,0.45-0.68,0.45-1.08S37.11,73.26,36.82,72.98z
					"/>
			</g>
		</g>
		<g>
			<g>
				
					<linearGradient id="SVGID_3_" gradientUnits="userSpaceOnUse" x1="45.9192" y1="12.7253" x2="49.1792" y2="18.3718" gradientTransform="matrix(1 0 0 -1 0 88)">
					<stop  offset="0" style="stop-color:#0064E9"/>
					<stop  offset="0.3088" style="stop-color:#0096D1"/>
					<stop  offset="0.6175" style="stop-color:#00C1BD"/>
					<stop  offset="0.8577" style="stop-color:#00DBB1"/>
					<stop  offset="1" style="stop-color:#00E5AC"/>
				</linearGradient>
				<path class="st2" d="M51,70.92h-6.9c-0.85,0-1.53,0.69-1.53,1.53s0.69,1.53,1.53,1.53H51c0.85,0,1.53-0.69,1.53-1.53
					S51.85,70.92,51,70.92z"/>
			</g>
		</g>
		<g>
			<g>
				
					<linearGradient id="SVGID_4_" gradientUnits="userSpaceOnUse" x1="50.7175" y1="34.7098" x2="77.1497" y2="80.4915" gradientTransform="matrix(1 0 0 -1 0 88)">
					<stop  offset="0" style="stop-color:#0064E9"/>
					<stop  offset="0.3088" style="stop-color:#0096D1"/>
					<stop  offset="0.6175" style="stop-color:#00C1BD"/>
					<stop  offset="0.8577" style="stop-color:#00DBB1"/>
					<stop  offset="1" style="stop-color:#00E5AC"/>
				</linearGradient>
				<path class="st3" d="M63.04,3.73c-6.73,0-13.24,2.41-18.34,6.77c-5.05,4.32-8.42,10.29-9.5,16.81
					c-0.14,0.84,0.43,1.63,1.26,1.76c0.84,0.14,1.63-0.43,1.76-1.26C40.24,15.64,50.68,6.8,63.04,6.8
					c13.87,0,25.16,11.29,25.16,25.16S76.92,57.11,63.04,57.11c-0.85,0-1.53,0.69-1.53,1.53s0.69,1.53,1.53,1.53
					c15.56,0,28.23-12.66,28.23-28.23S78.61,3.73,63.04,3.73z"/>
			</g>
		</g>
		<g>
			<g>
				
					<linearGradient id="SVGID_5_" gradientUnits="userSpaceOnUse" x1="57.2396" y1="28.4949" x2="58.7766" y2="31.1571" gradientTransform="matrix(1 0 0 -1 0 88)">
					<stop  offset="0" style="stop-color:#0064E9"/>
					<stop  offset="0.3088" style="stop-color:#0096D1"/>
					<stop  offset="0.6175" style="stop-color:#00C1BD"/>
					<stop  offset="0.8577" style="stop-color:#00DBB1"/>
					<stop  offset="1" style="stop-color:#00E5AC"/>
				</linearGradient>
				<path class="st4" d="M58.31,56.67c-0.01,0-0.02,0-0.02,0c-0.83-0.16-1.63,0.38-1.79,1.21c-0.16,0.83,0.38,1.64,1.21,1.8
					c0.1,0.02,0.2,0.03,0.3,0.03c0.72,0,1.36-0.5,1.5-1.23C59.68,57.64,59.14,56.83,58.31,56.67z"/>
			</g>
		</g>
		<g>
			<g>
				
					<linearGradient id="SVGID_6_" gradientUnits="userSpaceOnUse" x1="60.8993" y1="55.5325" x2="67.3204" y2="66.6544" gradientTransform="matrix(1 0 0 -1 0 88)">
					<stop  offset="0" style="stop-color:#0064E9"/>
					<stop  offset="0.3088" style="stop-color:#0096D1"/>
					<stop  offset="0.6175" style="stop-color:#00C1BD"/>
					<stop  offset="0.8577" style="stop-color:#00DBB1"/>
					<stop  offset="1" style="stop-color:#00E5AC"/>
				</linearGradient>
				<path class="st5" d="M71.31,23.71c-0.6-0.6-1.57-0.6-2.17,0l-6.07,6.07l-3.2-3.2c-0.6-0.6-1.57-0.6-2.17,0
					c-0.6,0.6-0.6,1.57,0,2.17l4.28,4.28c0.3,0.3,0.69,0.45,1.08,0.45c0.39,0,0.79-0.15,1.08-0.45l7.16-7.16
					C71.91,25.28,71.91,24.31,71.31,23.71z"/>
			</g>
		</g>
		<g>
			<g>
				
					<linearGradient id="SVGID_7_" gradientUnits="userSpaceOnUse" x1="62.0382" y1="68.7916" x2="64.043" y2="72.2641" gradientTransform="matrix(1 0 0 -1 0 88)">
					<stop  offset="0" style="stop-color:#0064E9"/>
					<stop  offset="0.3088" style="stop-color:#0096D1"/>
					<stop  offset="0.6175" style="stop-color:#00C1BD"/>
					<stop  offset="0.8577" style="stop-color:#00DBB1"/>
					<stop  offset="1" style="stop-color:#00E5AC"/>
				</linearGradient>
				<path class="st6" d="M63.04,15.4c-0.85,0-1.53,0.69-1.53,1.53v1.09c0,0.85,0.69,1.53,1.53,1.53s1.53-0.69,1.53-1.53v-1.09
					C64.58,16.09,63.89,15.4,63.04,15.4z"/>
			</g>
		</g>
		<g>
			<g>
				
					<linearGradient id="SVGID_8_" gradientUnits="userSpaceOnUse" x1="62.0349" y1="39.8359" x2="64.0397" y2="43.3084" gradientTransform="matrix(1 0 0 -1 0 88)">
					<stop  offset="0" style="stop-color:#0064E9"/>
					<stop  offset="0.3088" style="stop-color:#0096D1"/>
					<stop  offset="0.6175" style="stop-color:#00C1BD"/>
					<stop  offset="0.8577" style="stop-color:#00DBB1"/>
					<stop  offset="1" style="stop-color:#00E5AC"/>
				</linearGradient>
				<path class="st7" d="M63.04,44.35c-0.85,0-1.53,0.69-1.53,1.53v1.09c0,0.85,0.69,1.53,1.53,1.53s1.53-0.69,1.53-1.53v-1.09
					C64.58,45.04,63.89,44.35,63.04,44.35z"/>
			</g>
		</g>
		<g>
			<g>
				
					<linearGradient id="SVGID_9_" gradientUnits="userSpaceOnUse" x1="76.619" y1="54.4807" x2="78.4249" y2="57.6087" gradientTransform="matrix(1 0 0 -1 0 88)">
					<stop  offset="0" style="stop-color:#0064E9"/>
					<stop  offset="0.3088" style="stop-color:#0096D1"/>
					<stop  offset="0.6175" style="stop-color:#00C1BD"/>
					<stop  offset="0.8577" style="stop-color:#00DBB1"/>
					<stop  offset="1" style="stop-color:#00E5AC"/>
				</linearGradient>
				<path class="st8" d="M78.07,30.42h-1.09c-0.85,0-1.53,0.69-1.53,1.53s0.69,1.53,1.53,1.53h1.09c0.85,0,1.53-0.69,1.53-1.53
					S78.91,30.42,78.07,30.42z"/>
			</g>
		</g>
		<g>
			<g>
				
					<linearGradient id="SVGID_10_" gradientUnits="userSpaceOnUse" x1="47.6605" y1="54.4833" x2="49.4664" y2="57.6113" gradientTransform="matrix(1 0 0 -1 0 88)">
					<stop  offset="0" style="stop-color:#0064E9"/>
					<stop  offset="0.3088" style="stop-color:#0096D1"/>
					<stop  offset="0.6175" style="stop-color:#00C1BD"/>
					<stop  offset="0.8577" style="stop-color:#00DBB1"/>
					<stop  offset="1" style="stop-color:#00E5AC"/>
				</linearGradient>
				<path class="st9" d="M49.11,30.42h-1.09c-0.85,0-1.53,0.69-1.53,1.53s0.69,1.53,1.53,1.53h1.09c0.85,0,1.53-0.69,1.53-1.53
					S49.96,30.42,49.11,30.42z"/>
			</g>
		</g>
	</g>
</g>
</svg>
