<?xml version="1.0" encoding="utf-8"?>
<!-- Generator: Adobe Illustrator 23.1.0, SVG Export Plug-In . SVG Version: 6.00 Build 0)  -->
<svg version="1.1" id="Layer_1" xmlns="http://www.w3.org/2000/svg" xmlns:xlink="http://www.w3.org/1999/xlink" x="0px" y="0px"
	 viewBox="0 0 104 86" style="enable-background:new 0 0 104 86;" xml:space="preserve">
<style type="text/css">
	.st0{fill:url(#SVGID_1_);}
	.st1{fill:url(#SVGID_2_);}
	.st2{fill:url(#SVGID_3_);}
	.st3{fill:url(#SVGID_4_);}
	.st4{fill:url(#SVGID_5_);}
	.st5{fill:url(#SVGID_6_);}
	.st6{fill:url(#SVGID_7_);}
</style>
<g>
	<g>
		
			<linearGradient id="SVGID_1_" gradientUnits="userSpaceOnUse" x1="16.9778" y1="4.304" x2="53.2408" y2="67.1134" gradientTransform="matrix(1 0 0 -1 0 88)">
			<stop  offset="0" style="stop-color:#0064E9"/>
			<stop  offset="0.3088" style="stop-color:#0096D1"/>
			<stop  offset="0.6175" style="stop-color:#00C1BD"/>
			<stop  offset="0.8577" style="stop-color:#00DBB1"/>
			<stop  offset="1" style="stop-color:#00E5AC"/>
		</linearGradient>
		<path class="st0" d="M50.71,24.94c0-7.83-6.37-14.19-14.19-14.19s-14.19,6.37-14.19,14.19c0,3.26,1.12,6.26,2.97,8.66
			c-0.25,0.52-0.39,1.08-0.39,1.66v7.8c-1.49-2.38-4.12-3.93-7.05-3.93c-1.8,0-3.27,1.47-3.27,3.27c0,0.65,0.19,1.27,0.55,1.81
			l1.33,1.99c0.49,0.74,0.81,1.59,0.92,2.47l0.91,7.31c0.14,1.11,0.57,2.17,1.24,3.07l2.79,3.72v2.15h-2.58V83h28.39V64.94h-2.58
			v-2.28l1.9-3.8c0.44-0.89,0.68-1.89,0.68-2.88V35.26c0-0.58-0.15-1.15-0.39-1.66C49.59,31.2,50.71,28.2,50.71,24.94L50.71,24.94z
			 M36.52,13.32c6.4,0,11.61,5.21,11.61,11.61s-5.21,11.61-11.61,11.61s-11.62-5.2-11.62-11.6S30.11,13.32,36.52,13.32z
			 M45.55,67.52v2.58H22.32v-2.58H45.55z M22.32,80.42v-7.74h23.23v7.74H22.32z M45.14,57.71l-2.17,4.34v2.89H24.9v-3.01l-3.31-4.41
			c-0.4-0.54-0.66-1.17-0.74-1.84l-0.91-7.31c-0.16-1.27-0.62-2.51-1.33-3.58l-1.33-1.99c-0.08-0.11-0.12-0.25-0.12-0.38
			c0-0.38,0.31-0.69,0.69-0.69c2.72,0,5.09,1.94,5.63,4.61l1.61,8.05l0.79,0.2c2.46,0.62,4.18,2.82,4.18,5.36v2.42h2.58v-2.42
			c0-3.38-2.08-6.34-5.16-7.54V35.88c0.79,0.65,1.66,1.21,2.58,1.69v13.18h2.58V38.58c0.83,0.24,1.69,0.4,2.58,0.49v11.68h2.58
			V39.06c0.89-0.08,1.75-0.25,2.58-0.49v12.16h2.58V37.56c0.92-0.47,1.79-1.03,2.58-1.69v20.1C45.55,56.57,45.41,57.17,45.14,57.71z
			"/>
		
			<linearGradient id="SVGID_2_" gradientUnits="userSpaceOnUse" x1="28.9932" y1="50.0282" x2="63.2655" y2="109.3895" gradientTransform="matrix(1 0 0 -1 0 88)">
			<stop  offset="0" style="stop-color:#0064E9"/>
			<stop  offset="0.3088" style="stop-color:#0096D1"/>
			<stop  offset="0.6175" style="stop-color:#00C1BD"/>
			<stop  offset="0.8577" style="stop-color:#00DBB1"/>
			<stop  offset="1" style="stop-color:#00E5AC"/>
		</linearGradient>
		<path class="st1" d="M36.52,28.81c-0.71,0-1.29-0.58-1.29-1.29h-2.58c0,1.68,1.08,3.1,2.58,3.63v2.82h2.58v-2.58h2.58v-3.87
			c0-2.13-1.74-3.87-3.87-3.87c-0.71,0-1.29-0.58-1.29-1.29v-1.29h1.29c0.71,0,1.29,0.58,1.29,1.29h2.58c0-1.68-1.08-3.1-2.58-3.63
			V15.9h-2.58v2.58h-2.58v3.87c0,2.13,1.74,3.87,3.87,3.87c0.71,0,1.29,0.58,1.29,1.29v1.29h-1.29V28.81z"/>
		
			<linearGradient id="SVGID_3_" gradientUnits="userSpaceOnUse" x1="55.2622" y1="26.8039" x2="91.422" y2="89.4346" gradientTransform="matrix(1 0 0 -1 0 88)">
			<stop  offset="0" style="stop-color:#0064E9"/>
			<stop  offset="0.3088" style="stop-color:#0096D1"/>
			<stop  offset="0.6175" style="stop-color:#00C1BD"/>
			<stop  offset="0.8577" style="stop-color:#00DBB1"/>
			<stop  offset="1" style="stop-color:#00E5AC"/>
		</linearGradient>
		<path class="st2" d="M88.87,41.79l-1.33-1.99c-0.49-0.74-0.81-1.59-0.92-2.47l-0.91-7.31c-0.14-1.11-0.57-2.17-1.24-3.07
			l-2.79-3.72v-2.15h2.58V3H55.87v18.06h2.58v2.28l-1.9,3.8c-0.44,0.89-0.68,1.89-0.68,2.88v20.72c0,0.26,0.03,0.51,0.08,0.76
			c-3.22,3.06-5.24,7.37-5.24,12.15c0,9.25,7.53,16.77,16.77,16.77s16.77-7.53,16.77-16.77c0-4.78-2.02-9.09-5.24-12.15
			c0.05-0.25,0.08-0.5,0.08-0.76v-7.8c1.49,2.38,4.12,3.93,7.05,3.93c1.8,0,3.27-1.47,3.27-3.27
			C89.42,42.95,89.23,42.33,88.87,41.79z M81.68,5.58v12.9H58.45v-5.16h10.32v-2.58H58.45V5.58H81.68z M81.68,63.65
			c0,7.83-6.37,14.19-14.19,14.19S53.3,71.47,53.3,63.65s6.37-14.19,14.19-14.19S81.68,55.82,81.68,63.65z M86.15,44.29
			c-2.72,0-5.09-1.94-5.63-4.61l-1.61-8.05l-0.79-0.2c-2.46-0.62-4.18-2.82-4.18-5.36v-2.42h-2.58v2.42c0,3.38,2.08,6.34,5.16,7.54
			v15.93c-0.82-0.53-1.68-0.99-2.58-1.37V35.26h-2.58v12.08c-0.84-0.2-1.7-0.34-2.58-0.4V35.26H66.2v11.68
			c-0.88,0.07-1.74,0.2-2.58,0.4V35.26h-2.58v12.91c-0.9,0.38-1.76,0.84-2.58,1.37V30.02c0-0.6,0.14-1.2,0.41-1.73l2.17-4.34v-2.89
			H79.1v3.01l3.31,4.41c0.4,0.54,0.66,1.17,0.74,1.84l0.91,7.31c0.16,1.27,0.62,2.51,1.33,3.58l1.33,1.99
			c0.08,0.11,0.12,0.25,0.12,0.38C86.84,43.98,86.53,44.29,86.15,44.29L86.15,44.29z"/>
		
			<linearGradient id="SVGID_4_" gradientUnits="userSpaceOnUse" x1="39.44" y1="-24.1894" x2="81.2595" y2="48.2442" gradientTransform="matrix(1 0 0 -1 0 88)">
			<stop  offset="0" style="stop-color:#0064E9"/>
			<stop  offset="0.3088" style="stop-color:#0096D1"/>
			<stop  offset="0.6175" style="stop-color:#00C1BD"/>
			<stop  offset="0.8577" style="stop-color:#00DBB1"/>
			<stop  offset="1" style="stop-color:#00E5AC"/>
		</linearGradient>
		<path class="st3" d="M58.82,70.47L74.3,54.99l1.82,1.82L60.64,72.3L58.82,70.47z"/>
		
			<linearGradient id="SVGID_5_" gradientUnits="userSpaceOnUse" x1="45.7761" y1="-27.3569" x2="82.6885" y2="36.5772" gradientTransform="matrix(1 0 0 -1 0 88)">
			<stop  offset="0" style="stop-color:#0064E9"/>
			<stop  offset="0.3088" style="stop-color:#0096D1"/>
			<stop  offset="0.6175" style="stop-color:#00C1BD"/>
			<stop  offset="0.8577" style="stop-color:#00DBB1"/>
			<stop  offset="1" style="stop-color:#00E5AC"/>
		</linearGradient>
		<path class="st4" d="M72.65,64.94c-2.13,0-3.87,1.74-3.87,3.87s1.74,3.87,3.87,3.87s3.87-1.74,3.87-3.87S74.78,64.94,72.65,64.94z
			 M72.65,70.1c-0.71,0-1.29-0.58-1.29-1.29s0.58-1.29,1.29-1.29s1.29,0.58,1.29,1.29S73.36,70.1,72.65,70.1z"/>
		
			<linearGradient id="SVGID_6_" gradientUnits="userSpaceOnUse" x1="39.7158" y1="-9.6316" x2="76.6282" y2="54.3025" gradientTransform="matrix(1 0 0 -1 0 88)">
			<stop  offset="0" style="stop-color:#0064E9"/>
			<stop  offset="0.3088" style="stop-color:#0096D1"/>
			<stop  offset="0.6175" style="stop-color:#00C1BD"/>
			<stop  offset="0.8577" style="stop-color:#00DBB1"/>
			<stop  offset="1" style="stop-color:#00E5AC"/>
		</linearGradient>
		<path class="st5" d="M62.32,62.35c2.13,0,3.87-1.74,3.87-3.87s-1.74-3.87-3.87-3.87s-3.87,1.74-3.87,3.87S60.19,62.35,62.32,62.35
			z M62.32,57.19c0.71,0,1.29,0.58,1.29,1.29s-0.58,1.29-1.29,1.29s-1.29-0.58-1.29-1.29S61.61,57.19,62.32,57.19z"/>
		
			<linearGradient id="SVGID_7_" gradientUnits="userSpaceOnUse" x1="76.5746" y1="78.299" x2="113.487" y2="142.2332" gradientTransform="matrix(1 0 0 -1 0 88)">
			<stop  offset="0" style="stop-color:#0064E9"/>
			<stop  offset="0.3088" style="stop-color:#0096D1"/>
			<stop  offset="0.6175" style="stop-color:#00C1BD"/>
			<stop  offset="0.8577" style="stop-color:#00DBB1"/>
			<stop  offset="1" style="stop-color:#00E5AC"/>
		</linearGradient>
		<path class="st6" d="M75.23,15.9c2.13,0,3.87-1.74,3.87-3.87s-1.74-3.87-3.87-3.87s-3.87,1.74-3.87,3.87S73.09,15.9,75.23,15.9z
			 M75.23,10.74c0.71,0,1.29,0.58,1.29,1.29s-0.58,1.29-1.29,1.29s-1.29-0.58-1.29-1.29S74.51,10.74,75.23,10.74z"/>
	</g>
</g>
</svg>
