<?xml version="1.0" encoding="utf-8"?>
<!-- Generator: Adobe Illustrator 23.1.0, SVG Export Plug-In . SVG Version: 6.00 Build 0)  -->
<svg version="1.1" id="Layer_1" xmlns="http://www.w3.org/2000/svg" xmlns:xlink="http://www.w3.org/1999/xlink" x="0px" y="0px"
	 viewBox="0 0 372 64.38" style="enable-background:new 0 0 372 64.38;" xml:space="preserve">
<style type="text/css">
	.st0{fill:#FFFFFF;}
</style>
<g>
	<g>
		<g>
			<g>
				<path class="st0" d="M272.82,45.48h-5.34V21.67h0.61c2.61,0,4.73,2.12,4.73,4.73V45.48z"/>
				<path class="st0" d="M347.22,21.6h-10.98c-0.13,0-0.26,0.04-0.39,0.06c-0.11-0.01-0.16-0.01-0.27-0.01
					c-1.47,0-2.6,1.21-2.6,2.69v0.73V27v13.14v1.94v8.12c0,1.47,1.2,2.67,2.67,2.67s2.67-1.2,2.67-2.67v-4.79h8.9
					c2.95,0,5.41-2.36,5.41-5.3l0.07,0.03V27C352.7,24.06,350.17,21.6,347.22,21.6z M338.33,40.08V26.94h7.12l0,0
					c1.06,0,1.92,0.86,1.92,1.92v0.27v9.31v0c0,0.91-0.74,1.64-1.64,1.64h-0.89H338.33z"/>
				<path class="st0" d="M326.36,21.99c-0.39-0.23-0.84-0.39-1.33-0.39h-22.59c-0.07,0-0.14,0.04-0.21,0.04
					c-0.07-0.01-0.16,0.01-0.23,0.01c-1.47,0-2.69,1.21-2.69,2.69V42.7c0,1.46,1.13,2.74,2.59,2.78c1.51,0.05,2.75-1.17,2.75-2.67
					V26.94h4.93h0c1.13,0,2.05,0.92,2.05,2.05v0l0,13.71c0,1.46,1.13,2.74,2.59,2.78c1.51,0.05,2.75-1.17,2.75-2.67V26.94h4.8h0.33
					c1.02,0,1.85,0.83,1.85,1.85v0l0,13.92c0,1.46,1.13,2.74,2.59,2.78c1.51,0.05,2.75-1.17,2.75-2.67V26.4
					C329.29,24.42,328.08,22.7,326.36,21.99z"/>
				<path class="st0" d="M293.12,40.08h-11.46v-3.7h7.97c1.49,0,2.7-1.21,2.7-2.7c0-1.46-1.18-2.64-2.64-2.64h-8.04v-4.11h11.4
					c1.49,0,2.7-1.21,2.7-2.7c0-1.46-1.18-2.64-2.64-2.64h-14.13c-1.34,0-2.44,1.23-2.52,2.46h-0.14v0.14v2.33v13.53
					c0,2.82,2.25,5.13,5.02,5.33c0.11,0.01,0.28,0.03,0.39,0.03h11.33c1.49,0,2.7-1.21,2.7-2.7
					C295.75,41.26,294.57,40.08,293.12,40.08z"/>
				<circle class="st0" cx="269.97" cy="17.37" r="2.69"/>
			</g>
		</g>
		<g>
			<g>
				<path class="st0" d="M355.33,17.08h7.05c0.32,0,0.58,0.26,0.58,0.58v5.82c0,0.32-0.26,0.58-0.58,0.58h-7.05
					c-0.32,0-0.58-0.26-0.58-0.58v-5.82C354.75,17.34,355.01,17.08,355.33,17.08z"/>
				<path class="st0" d="M364.37,17.08h7.05c0.32,0,0.58,0.26,0.58,0.58v5.82c0,0.32-0.26,0.58-0.58,0.58h-7.05
					c-0.32,0-0.58-0.26-0.58-0.58v-5.82C363.79,17.34,364.05,17.08,364.37,17.08z"/>
				<path class="st0" d="M355.33,24.88h7.05c0.32,0,0.58,0.26,0.58,0.58v5.82c0,0.32-0.26,0.58-0.58,0.58h-7.05
					c-0.32,0-0.58-0.26-0.58-0.58v-5.82C354.75,25.14,355.01,24.88,355.33,24.88z"/>
				<path class="st0" d="M364.37,24.88h7.05c0.32,0,0.58,0.26,0.58,0.58v5.82c0,0.32-0.26,0.58-0.58,0.58h-7.05
					c-0.32,0-0.58-0.26-0.58-0.58v-5.82C363.79,25.14,364.05,24.88,364.37,24.88z"/>
			</g>
		</g>
		<g>
			<g>
				<path class="st0" d="M272.45,54.95c-0.21,0-0.41,0-0.61-0.01c-0.2-0.01-0.39-0.02-0.56-0.04v4.9h-2.29V47.27h3.61
					c0.61,0,1.13,0.03,1.59,0.08c0.45,0.05,0.86,0.13,1.21,0.24c0.85,0.26,1.51,0.68,1.97,1.25c0.46,0.57,0.69,1.3,0.69,2.19
					c0,0.61-0.12,1.15-0.37,1.63c-0.25,0.48-0.61,0.89-1.1,1.23c-0.48,0.34-1.07,0.6-1.76,0.78
					C274.14,54.86,273.35,54.95,272.45,54.95z M271.28,52.97c0.13,0.02,0.3,0.03,0.5,0.04c0.2,0.01,0.41,0.01,0.63,0.01
					c0.62,0,1.14-0.05,1.55-0.15c0.42-0.1,0.75-0.24,1.01-0.42c0.26-0.18,0.44-0.39,0.55-0.65c0.11-0.25,0.17-0.53,0.17-0.83
					c0-0.37-0.08-0.69-0.25-0.95c-0.17-0.27-0.46-0.48-0.88-0.63c-0.22-0.07-0.49-0.13-0.81-0.16c-0.32-0.03-0.72-0.05-1.18-0.05
					h-1.29V52.97z"/>
				<path class="st0" d="M288.4,55.27c0,0.71-0.11,1.36-0.32,1.95c-0.21,0.59-0.52,1.09-0.91,1.51c-0.4,0.42-0.88,0.74-1.44,0.97
					c-0.56,0.23-1.19,0.34-1.88,0.34c-0.71,0-1.35-0.11-1.91-0.34c-0.56-0.23-1.04-0.55-1.44-0.97c-0.39-0.42-0.69-0.92-0.9-1.51
					c-0.21-0.59-0.31-1.24-0.31-1.95c0-0.71,0.11-1.36,0.32-1.95c0.21-0.59,0.52-1.09,0.91-1.51c0.4-0.42,0.88-0.74,1.44-0.97
					c0.56-0.23,1.19-0.34,1.88-0.34c0.71,0,1.35,0.11,1.91,0.34c0.56,0.23,1.04,0.55,1.44,0.97c0.39,0.42,0.69,0.92,0.9,1.51
					C288.3,53.91,288.4,54.56,288.4,55.27z M286.11,55.27c0-0.48-0.06-0.9-0.17-1.27c-0.11-0.37-0.27-0.68-0.47-0.93
					c-0.2-0.25-0.44-0.44-0.72-0.56c-0.28-0.13-0.59-0.19-0.92-0.19c-0.32,0-0.63,0.06-0.9,0.19c-0.28,0.12-0.52,0.31-0.72,0.56
					c-0.2,0.25-0.36,0.56-0.47,0.93c-0.11,0.37-0.17,0.79-0.17,1.27c0,0.48,0.06,0.9,0.17,1.27c0.11,0.37,0.27,0.68,0.47,0.92
					c0.2,0.25,0.44,0.43,0.72,0.56c0.28,0.13,0.58,0.19,0.91,0.19s0.63-0.06,0.91-0.19c0.27-0.13,0.51-0.31,0.71-0.56
					c0.2-0.25,0.36-0.55,0.47-0.92C286.06,56.17,286.11,55.75,286.11,55.27z"/>
				<path class="st0" d="M296.7,53.19c-0.17,0.9-0.38,1.78-0.62,2.63l-1.1,3.98h-2.18l-3.17-9.07h2.34l1.17,3.8
					c0.27,0.88,0.51,1.73,0.71,2.56h0.04c0.17-0.8,0.38-1.65,0.63-2.56l1.04-3.8h2.34l1.02,3.8c0.22,0.8,0.43,1.66,0.63,2.56h0.04
					c0.21-0.84,0.45-1.69,0.71-2.56l1.17-3.8h2.34l-3.17,9.07h-2.18l-1.1-3.98c-0.25-0.89-0.46-1.77-0.62-2.63H296.7z"/>
				<path class="st0" d="M310.16,58.24c0.43,0,0.88-0.04,1.35-0.13c0.47-0.09,0.94-0.21,1.42-0.37v1.77
					c-0.29,0.12-0.73,0.24-1.32,0.36c-0.59,0.11-1.21,0.17-1.84,0.17c-0.64,0-1.25-0.08-1.83-0.25c-0.58-0.17-1.08-0.43-1.51-0.8
					c-0.43-0.37-0.77-0.85-1.02-1.43c-0.25-0.59-0.38-1.3-0.38-2.13c0-0.82,0.12-1.54,0.36-2.16c0.24-0.62,0.56-1.13,0.95-1.54
					c0.4-0.41,0.86-0.71,1.37-0.91c0.51-0.2,1.05-0.3,1.6-0.3c0.57,0,1.1,0.09,1.59,0.26c0.48,0.17,0.9,0.45,1.25,0.82
					c0.35,0.37,0.63,0.86,0.82,1.45c0.2,0.59,0.29,1.29,0.29,2.09c-0.01,0.31-0.02,0.58-0.03,0.8h-5.94
					c0.03,0.42,0.12,0.78,0.28,1.07c0.16,0.3,0.36,0.54,0.61,0.72c0.25,0.18,0.55,0.32,0.88,0.4
					C309.41,58.2,309.77,58.24,310.16,58.24z M309.28,52.24c-0.28,0-0.53,0.05-0.75,0.15c-0.22,0.1-0.41,0.24-0.57,0.42
					c-0.16,0.18-0.29,0.39-0.38,0.62c-0.09,0.24-0.16,0.49-0.19,0.76h3.57c0-0.27-0.04-0.52-0.11-0.76
					c-0.07-0.24-0.18-0.44-0.32-0.62c-0.14-0.18-0.32-0.32-0.52-0.42C309.8,52.29,309.56,52.24,309.28,52.24z"/>
				<path class="st0" d="M321.1,52.49h-0.19c-0.68,0-1.28,0.1-1.79,0.3c-0.51,0.2-0.91,0.51-1.19,0.93v6.07h-2.22v-9.07h1.83
					l0.21,1.26h0.04c0.26-0.46,0.62-0.82,1.08-1.09c0.46-0.27,1.01-0.4,1.65-0.4c0.22,0,0.42,0.01,0.58,0.04V52.49z"/>
			</g>
		</g>
	</g>
	<g>
		<path class="st0" d="M52.86,17.89l-12.85-7.5l0,0l0,0l-4.28-2.5l0,0h0l-4.28-2.5l0,0h0l-4.28-2.5c-0.01-0.01-0.03-0.01-0.04,0
			l-4.28,2.5h0c0,0,0,0,0,0l-4.28,2.5h0l0,0l-4.28,2.5h0l0,0l-4.28,2.5c0,0,0,0,0,0c0,0,0,0,0,0l-4.28,2.5l0,0c0,0,0,0,0,0
			l-4.29,2.5c-0.01,0.01-0.02,0.02-0.02,0.04v30.01c0,0.02,0.01,0.03,0.02,0.04l4.29,2.5c0,0,0,0,0,0h0l4.28,2.5c0,0,0,0,0,0
			c0,0,0,0,0,0l4.28,2.5l0,0l0,0l4.28,2.5l0,0l0,0l4.28,2.5l0,0c0,0,0,0,0,0l4.28,2.5c0.01,0,0.01,0.01,0.02,0.01s0.01,0,0.02-0.01
			l4.28-2.5c0,0,0,0,0,0l0,0l4.28-2.5l0,0l0,0l4.28-2.5l0,0l0,0l4.28-2.5l0,0c0,0,0,0,0,0l4.28-2.5h0c0,0,0,0,0,0l4.29-2.5
			c0.01-0.01,0.02-0.02,0.02-0.04V17.93C52.88,17.91,52.87,17.9,52.86,17.89z M1.47,23l4.16,2.43l-4.16,2.43V23z M14.37,45.44
			l4.16-2.43v4.85L14.37,45.44z M39.9,20.43l-4.16,2.43V18L39.9,20.43z M18.65,37.93l4.16-2.43v4.85L18.65,37.93z M35.62,27.93
			l-4.16,2.43l0-4.85L35.62,27.93z M27.17,32.86V28l4.16,2.43L27.17,32.86z M31.37,30.5l0,4.85l-4.16-2.43L31.37,30.5z M27.09,32.86
			l-4.16-2.43L27.09,28V32.86z M27.05,32.93l-4.16,2.43V30.5L27.05,32.93z M22.81,35.36l-4.16-2.43l4.16-2.43V35.36z M27.09,33.01
			v4.85l-4.16-2.43L27.09,33.01z M27.17,33.01l4.16,2.43l-4.16,2.43V33.01z M31.46,30.5l4.16,2.43l-4.16,2.43L31.46,30.5z
			 M31.37,30.36l-4.16-2.43l4.16-2.43L31.37,30.36z M22.89,30.36V25.5l4.16,2.43L22.89,30.36z M18.61,32.86V28l4.16,2.43
			L18.61,32.86z M22.76,35.43l-4.16,2.43v-4.85L22.76,35.43z M22.89,35.51l4.16,2.43l-4.16,2.43V35.51z M31.37,35.51l0,4.85
			l-4.16-2.43L31.37,35.51z M35.66,33.01v4.85l-4.16-2.43L35.66,33.01z M31.5,30.43L35.66,28v4.85L31.5,30.43z M27.17,27.86V23
			l4.16,2.43L27.17,27.86z M27.09,27.86l-4.16-2.43L27.09,23V27.86z M22.81,30.36l-4.16-2.43l4.16-2.43V30.36z M27.09,38.01v4.85
			l-4.16-2.43L27.09,38.01z M27.17,38.01l4.16,2.43l-4.16,2.43V38.01z M31.46,35.51l4.16,2.43l-4.16,2.43L31.46,35.51z M35.74,28
			l4.16,2.43l-4.16,2.43V28z M31.5,25.43L35.66,23v4.85L31.5,25.43z M27.22,22.93l4.16-2.43l0,4.85L27.22,22.93z M22.89,25.36V20.5
			l4.16,2.43L22.89,25.36z M18.61,27.86V23l4.16,2.43L18.61,27.86z M18.52,32.86l-4.16-2.43L18.52,28V32.86z M18.52,37.86
			l-4.16-2.43l4.16-2.43V37.86z M22.76,40.43l-4.16,2.43v-4.85L22.76,40.43z M27.05,42.93l-4.16,2.43v-4.85L27.05,42.93z
			 M31.37,40.51v4.85l-4.16-2.43L31.37,40.51z M35.66,38.01v4.86l-4.16-2.43L35.66,38.01z M35.74,33.01l4.16,2.43l-4.16,2.43V33.01z
			 M39.94,30.5v4.85l-4.16-2.43L39.94,30.5z M35.78,27.93l4.16-2.43v4.85L35.78,27.93z M35.74,27.86V23l4.16,2.43L35.74,27.86z
			 M31.46,25.36V20.5l4.16,2.43L31.46,25.36z M27.17,22.86V18l4.16,2.43L27.17,22.86z M27.09,22.86l-4.19-2.45
			c1.42-0.83,2.83-1.65,4.19-2.45V22.86z M22.81,25.36l-4.19-2.44c1.39-0.81,2.79-1.63,4.19-2.45V25.36z M18.52,27.86l-4.18-2.44
			c1.36-0.79,2.76-1.62,4.18-2.45V27.86z M18.48,27.93l-4.16,2.43V25.5L18.48,27.93z M18.48,32.93l-4.16,2.43v-4.85L18.48,32.93z
			 M18.48,37.93l-4.16,2.43v-4.85L18.48,37.93z M18.52,38.01v4.85l-4.16-2.43L18.52,38.01z M22.81,40.51v4.85l-4.16-2.43
			L22.81,40.51z M27.09,43.01v4.85l-4.16-2.43L27.09,43.01z M27.17,43.01l4.16,2.43l-4.16,2.43V43.01z M31.46,40.51l4.16,2.43
			l-4.16,2.43L31.46,40.51z M35.74,38.01l4.16,2.43l-4.16,2.43V38.01z M35.78,37.93l4.16-2.43v4.86L35.78,37.93z M40.03,30.5
			l4.16,2.43l-4.16,2.43V30.5z M40.03,25.5l4.16,2.43l-4.16,2.43V25.5z M35.78,22.93l4.16-2.43v4.85L35.78,22.93z M35.66,22.86
			l-4.16-2.43L35.66,18V22.86z M27.18,17.91c1.47-0.86,2.88-1.68,4.19-2.45l0,4.9L27.18,17.91z M22.89,20.32V15.5l4.12,2.41
			C25.76,18.64,24.39,19.44,22.89,20.32z M20.65,21.62c-0.68,0.4-1.37,0.8-2.05,1.2V18l4.13,2.41C22.06,20.8,21.37,21.2,20.65,21.62
			z M14.32,25.33V20.5l4.13,2.41C17.05,23.73,15.66,24.54,14.32,25.33z M14.24,30.36l-4.17-2.44c1.31-0.77,2.71-1.59,4.17-2.44
			V30.36z M14.24,35.36l-4.16-2.43l4.16-2.43V35.36z M14.2,35.43l-4.16,2.43v-4.85L14.2,35.43z M14.24,40.36l-4.16-2.43l4.16-2.43
			V40.36z M18.48,42.93l-4.16,2.43v-4.85L18.48,42.93z M18.61,43.01l4.16,2.43l-4.16,2.43V43.01z M27.05,47.94l-4.16,2.43v-4.85
			L27.05,47.94z M31.37,45.51v4.85l-4.16-2.43L31.37,45.51z M35.66,43.01v4.85l-4.16-2.43L35.66,43.01z M39.94,40.51v4.86
			l-4.16-2.43L39.94,40.51z M40.03,35.51l4.16,2.43l-4.16,2.43V35.51z M44.23,33.01v4.85l-4.16-2.43L44.23,33.01z M40.07,30.43
			L44.23,28v4.85L40.07,30.43z M40.07,25.43L44.23,23v4.85L40.07,25.43z M40.03,25.36V20.5l4.16,2.43L40.03,25.36z M31.46,20.36
			V15.5l4.16,2.43L31.46,20.36z M27.17,17.81V13l4.12,2.41C30.1,16.11,28.73,16.9,27.17,17.81z M27.09,17.85l-4.16-2.43L27.09,13
			V17.85z M22.81,20.35l-4.16-2.43l4.16-2.43V20.35z M18.52,22.85l-4.16-2.43L18.52,18V22.85z M14.24,25.36l-4.16-2.43l4.16-2.43
			V25.36z M14.17,25.42c-1.45,0.85-2.84,1.66-4.14,2.42V23L14.17,25.42z M14.2,30.43l-4.16,2.43V28L14.2,30.43z M14.2,40.43
			l-4.16,2.43v-4.85L14.2,40.43z M14.24,40.51v4.85l-4.16-2.43L14.24,40.51z M22.81,45.51v4.85l-4.16-2.43L22.81,45.51z
			 M27.09,48.01v4.85l-4.16-2.43L27.09,48.01z M27.17,48.01l4.16,2.43l-4.16,2.43V48.01z M31.46,45.51l4.16,2.43l-4.16,2.43
			L31.46,45.51z M35.74,43.01l4.16,2.43l-4.16,2.43V43.01z M40.03,40.51l4.16,2.43l-4.16,2.43V40.51z M40.07,40.43l4.16-2.43v4.85
			L40.07,40.43z M44.31,28l4.16,2.43l-4.16,2.43V28z M44.31,23l4.16,2.43l-4.16,2.43V23z M40.07,20.43L44.23,18v4.85L40.07,20.43z
			 M35.78,17.93l4.16-2.43v4.85L35.78,17.93z M31.46,15.41c1.56-0.91,2.98-1.74,4.19-2.44v4.89L31.46,15.41z M27.22,12.93l4.16-2.43
			l0,4.85L27.22,12.93z M22.89,15.35V10.5l4.16,2.43L22.89,15.35z M18.61,17.85V13l4.16,2.43L18.61,17.85z M14.32,20.35V15.5
			l4.16,2.43L14.32,20.35z M10.04,22.86V18l4.16,2.43L10.04,22.86z M9.95,27.86L5.8,25.43L9.95,23V27.86z M9.95,32.86l-4.17-2.43
			c1.21-0.71,2.62-1.53,4.17-2.44V32.86z M9.95,37.86L5.8,35.43l4.16-2.43V37.86z M9.95,42.86L5.8,40.43l4.16-2.43V42.86z
			 M14.2,45.44l-4.16,2.43v-4.86L14.2,45.44z M18.48,47.94l-4.16,2.43v-4.85L18.48,47.94z M22.76,50.44l-4.16,2.43v-4.85
			L22.76,50.44z M27.05,52.94l-4.16,2.43v-4.85L27.05,52.94z M31.37,50.51v4.85l-4.16-2.43L31.37,50.51z M35.66,48.01v4.85
			l-4.16-2.43L35.66,48.01z M39.94,45.51v4.86l-4.16-2.43L39.94,45.51z M44.23,43.01v4.86l-4.16-2.43L44.23,43.01z M44.31,38.01
			l4.16,2.43l-4.16,2.43V38.01z M44.31,33.01l4.16,2.43l-4.16,2.43V33.01z M44.35,32.93l4.16-2.43l0,4.85L44.35,32.93z M44.35,27.93
			l4.16-2.43l0,4.85L44.35,27.93z M44.35,22.93l4.16-2.43l0,4.85L44.35,22.93z M44.31,22.86V18l4.16,2.43L44.31,22.86z M40.03,20.35
			V15.5l4.16,2.43L40.03,20.35z M35.74,17.85V13l4.16,2.43L35.74,17.85z M31.46,15.31V10.5l4.13,2.41
			C34.5,13.54,33.14,14.33,31.46,15.31z M27.17,12.85V8l4.16,2.43L27.17,12.85z M27.09,12.85l-4.16-2.43L27.09,8V12.85z
			 M22.81,15.35l-4.16-2.43l4.16-2.43V15.35z M18.52,17.85l-4.16-2.43L18.52,13V17.85z M14.24,20.35l-4.16-2.43l4.16-2.43V20.35z
			 M9.95,22.86L5.8,20.43L9.95,18V22.86z M9.91,22.93l-4.16,2.43V20.5L9.91,22.93z M9.9,27.92c-1.54,0.9-2.94,1.72-4.14,2.43V25.5
			L9.9,27.92z M9.91,32.93l-4.16,2.43v-4.85L9.91,32.93z M9.91,37.93l-4.16,2.43v-4.85L9.91,37.93z M9.91,42.93l-4.16,2.43v-4.85
			L9.91,42.93z M9.95,43.01v4.85L5.8,45.44L9.95,43.01z M14.24,45.51v4.85l-4.16-2.43L14.24,45.51z M18.52,48.01v4.85l-4.16-2.43
			L18.52,48.01z M22.81,50.51v4.85l-4.16-2.43L22.81,50.51z M27.09,53.01v4.85l-4.16-2.43L27.09,53.01z M27.17,53.01l4.16,2.43
			l-4.16,2.43V53.01z M31.46,50.51l4.16,2.43l-4.16,2.43L31.46,50.51z M35.74,48.01l4.16,2.43l-4.16,2.43V48.01z M40.03,45.51
			l4.16,2.43l-4.16,2.43V45.51z M44.31,43.01l4.16,2.43l-4.16,2.43V43.01z M44.35,42.93l4.16-2.43l0,4.85L44.35,42.93z M44.35,37.93
			l4.16-2.43l0,4.85L44.35,37.93z M48.59,30.5l4.16,2.43l-4.16,2.43L48.59,30.5z M48.59,25.5l4.16,2.43l-4.16,2.43L48.59,25.5z
			 M48.59,20.5l4.16,2.43l-4.16,2.43L48.59,20.5z M48.51,20.35l-4.16-2.43l4.16-2.43L48.51,20.35z M44.23,17.85l-4.16-2.43L44.23,13
			V17.85z M39.94,15.35l-4.19-2.45c2.32-1.35,3.88-2.25,4.19-2.41V15.35z M35.66,12.85l-4.16-2.43L35.66,8V12.85z M31.37,10.35
			l-4.16-2.43l4.16-2.43L31.37,10.35z M22.89,10.35V5.5l4.16,2.43L22.89,10.35z M18.61,12.85V8l4.16,2.43L18.61,12.85z M14.32,15.35
			V10.5l4.16,2.43L14.32,15.35z M10.04,17.85V13l4.16,2.43L10.04,17.85z M5.76,20.35V15.5l4.16,2.43L5.76,20.35z M5.67,25.36
			l-4.16-2.43l4.16-2.43V25.36z M5.67,30.36l-4.16-2.43l4.16-2.43V30.36z M5.67,35.36l-4.16-2.43c0.33-0.19,1.87-1.1,4.16-2.44
			V35.36z M5.67,40.36l-4.16-2.43l4.16-2.43V40.36z M5.67,45.36l-4.16-2.43l4.16-2.43V45.36z M5.76,45.51l4.16,2.43l-4.16,2.43
			V45.51z M10.04,48.01l4.16,2.43l-4.16,2.43V48.01z M14.32,50.51l4.16,2.43l-4.16,2.43V50.51z M18.61,53.01l4.16,2.43l-4.16,2.43
			V53.01z M22.89,55.51l4.16,2.43l-4.16,2.43V55.51z M31.37,55.51v4.85l-4.16-2.43L31.37,55.51z M35.66,53.01v4.85l-4.16-2.43
			L35.66,53.01z M39.94,50.51v4.85l-4.16-2.43L39.94,50.51z M44.23,48.01v4.85l-4.16-2.43L44.23,48.01z M48.51,45.51l0,4.85
			l-4.16-2.43L48.51,45.51z M48.59,40.51l4.16,2.43l-4.16,2.43L48.59,40.51z M48.59,35.51l4.16,2.43l-4.16,2.43L48.59,35.51z
			 M48.64,35.43l4.16-2.43v4.85L48.64,35.43z M48.64,30.43L52.79,28v4.85L48.64,30.43z M48.64,25.43L52.79,23v4.85L48.64,25.43z
			 M48.64,20.43L52.79,18v4.85L48.64,20.43z M48.59,20.36l0-4.85l4.16,2.43L48.59,20.36z M44.31,17.85V13l4.16,2.43L44.31,17.85z
			 M40.03,15.35V10.5l4.16,2.43L40.03,15.35z M35.74,12.82V8l4.16,2.43C39.66,10.55,38.82,11.03,35.74,12.82z M31.46,10.35V5.5
			l4.16,2.43L31.46,10.35z M27.17,7.85V3l4.16,2.43L27.17,7.85z M27.09,7.85l-4.16-2.43L27.09,3V7.85z M22.81,10.35l-4.16-2.43
			l4.16-2.43V10.35z M18.52,12.85l-4.16-2.43L18.52,8V12.85z M14.24,15.35l-4.16-2.43l4.16-2.43V15.35z M9.95,17.85L5.8,15.43
			L9.95,13V17.85z M5.67,20.36l-4.16-2.43l4.16-2.43V20.36z M5.63,20.43l-4.16,2.43V18L5.63,20.43z M5.62,30.43
			c-2.3,1.35-3.84,2.25-4.15,2.43V28L5.62,30.43z M1.47,33.01l4.16,2.43l-4.16,2.43V33.01z M5.63,40.43l-4.16,2.43v-4.86L5.63,40.43
			z M1.47,43.01l4.16,2.43l-4.16,2.43V43.01z M5.67,45.51v4.86l-4.16-2.43L5.67,45.51z M9.95,48.01v4.85L5.8,50.44L9.95,48.01z
			 M14.24,50.51v4.85l-4.16-2.43L14.24,50.51z M18.52,53.01v4.85l-4.16-2.43L18.52,53.01z M22.81,55.51v4.85l-4.16-2.43L22.81,55.51
			z M27.09,58.01v4.85l-4.16-2.43L27.09,58.01z M27.17,58.01l4.16,2.43l-4.16,2.43V58.01z M31.46,55.51l4.16,2.43l-4.16,2.43
			L31.46,55.51z M35.74,53.01l4.16,2.43l-4.16,2.43V53.01z M40.03,50.51l4.16,2.43l-4.16,2.43V50.51z M44.31,48.01l4.16,2.43
			l-4.16,2.43V48.01z M48.59,45.51l4.16,2.43l-4.16,2.43L48.59,45.51z M48.64,45.44l4.16-2.43v4.85L48.64,45.44z M48.63,40.43
			l4.16-2.43v4.86L48.63,40.43z"/>
		<g>
			<path class="st0" d="M199.3,32.94l10.51-12.57c0.84-1,0.7-2.49-0.29-3.32c-1-0.84-2.48-0.7-3.32,0.3l-9.97,11.92l-9.97-11.92
				c-0.84-1-2.32-1.13-3.32-0.3c-1,0.84-1.13,2.32-0.29,3.32l10.51,12.57l-10.51,12.57c-0.84,1-0.7,2.49,0.29,3.32
				c0.44,0.37,0.98,0.55,1.51,0.55c0.67,0,1.34-0.29,1.81-0.84l9.97-11.92l9.97,11.92c0.47,0.56,1.14,0.84,1.81,0.84
				c0.53,0,1.07-0.18,1.51-0.55c1-0.84,1.13-2.32,0.29-3.32L199.3,32.94z"/>
			<g>
				<path class="st0" d="M107.74,49.38h-6.79c-5.19,0-9.4-4.21-9.4-9.41V18.86c0-1.3,1.05-2.36,2.36-2.36h0
					c1.3,0,2.36,1.06,2.36,2.36v21.11c0,2.59,2.1,4.69,4.69,4.69h6.79c2.59,0,4.69-2.1,4.69-4.69V18.86c0-1.3,1.05-2.36,2.36-2.36h0
					c1.3,0,2.36,1.06,2.36,2.36v21.11C117.14,45.17,112.93,49.38,107.74,49.38z"/>
			</g>
			<g>
				<path class="st0" d="M76.02,49.38l-11.59,0c-1.3,0-2.36-1.06-2.36-2.36v0c0-1.3,1.05-2.36,2.36-2.36l11.72,0
					c2.44,0,4.63-1.78,4.87-4.22c0.27-2.79-1.93-5.15-4.67-5.15l-4.55,0c-5,0-9.37-3.77-9.7-8.76c-0.37-5.47,3.98-10.04,9.38-10.04
					h11.91c1.3,0,2.36,1.06,2.36,2.36v0c0,1.3-1.05,2.36-2.36,2.36l-11.71,0c-2.44,0-4.63,1.78-4.87,4.22
					c-0.27,2.79,1.93,5.15,4.67,5.15l4.87,0c5.4,0,9.75,4.57,9.38,10.04C85.39,45.61,81.02,49.38,76.02,49.38z"/>
			</g>
			<path class="st0" d="M175.39,35.3c1.3,0,2.36-1.06,2.36-2.36c0-1.3-1.05-2.36-2.36-2.36h-17.61V25.9c0-2.59,2.1-4.69,4.69-4.69
				h12.92c1.3,0,2.36-1.06,2.36-2.36c0-1.3-1.05-2.36-2.36-2.36h-12.92c-5.19,0-9.4,4.21-9.4,9.41v14.07c0,5.2,4.21,9.41,9.4,9.41
				h12.92c1.3,0,2.36-1.06,2.36-2.36c0-1.3-1.05-2.36-2.36-2.36h-12.92c-2.59,0-4.69-2.1-4.69-4.69V35.3H175.39z"/>
			<path class="st0" d="M144.08,32.94c1.95-1.72,3.2-4.24,3.2-7.04c0-5.18-4.22-9.4-9.4-9.4h-10.25l0,0.01
				c-2.59,0-4.69,2.1-4.69,4.69v23.49c0,2.59,2.1,4.69,4.69,4.69l0,0h10.25c5.18,0,9.4-4.22,9.4-9.4
				C147.28,37.18,146.03,34.66,144.08,32.94z M137.87,44.66h-10.22V35.3h10.22v0.01c2.59,0,4.69,2.1,4.69,4.68
				C142.56,42.56,140.46,44.66,137.87,44.66z M137.89,30.58c0,0-0.01,0-0.01,0v0h-10.22v-9.37h10.22c2.59,0,4.69,2.1,4.69,4.69
				C142.56,28.48,140.47,30.58,137.89,30.58z"/>
		</g>
		<g>
			<ellipse class="st0" cx="27.13" cy="2.92" rx="1.43" ry="1.44"/>
			<ellipse class="st0" cx="22.85" cy="5.42" rx="1.43" ry="1.44"/>
			<ellipse class="st0" cx="31.42" cy="5.42" rx="1.43" ry="1.44"/>
			<ellipse class="st0" cx="18.56" cy="7.93" rx="1.43" ry="1.44"/>
			<ellipse class="st0" cx="27.13" cy="7.93" rx="1.43" ry="1.44"/>
			<ellipse class="st0" cx="35.7" cy="7.93" rx="1.43" ry="1.44"/>
			<ellipse class="st0" cx="14.28" cy="10.43" rx="1.43" ry="1.44"/>
			<ellipse class="st0" cx="22.85" cy="10.43" rx="1.43" ry="1.44"/>
			<ellipse class="st0" cx="31.42" cy="10.43" rx="1.43" ry="1.44"/>
			<ellipse class="st0" cx="39.98" cy="10.43" rx="1.43" ry="1.44"/>
			<ellipse class="st0" cx="10" cy="12.93" rx="1.43" ry="1.44"/>
			<ellipse class="st0" cx="18.56" cy="12.93" rx="1.43" ry="1.44"/>
			<ellipse class="st0" cx="27.13" cy="12.93" rx="1.43" ry="1.44"/>
			<ellipse class="st0" cx="35.7" cy="12.93" rx="1.43" ry="1.44"/>
			<ellipse class="st0" cx="44.27" cy="12.93" rx="1.43" ry="1.44"/>
			<ellipse class="st0" cx="5.71" cy="15.43" rx="1.43" ry="1.44"/>
			<ellipse class="st0" cx="14.28" cy="15.43" rx="1.43" ry="1.44"/>
			<ellipse class="st0" cx="22.85" cy="15.43" rx="1.43" ry="1.44"/>
			<ellipse class="st0" cx="31.42" cy="15.43" rx="1.43" ry="1.44"/>
			<ellipse class="st0" cx="39.98" cy="15.43" rx="1.43" ry="1.44"/>
			<ellipse class="st0" cx="1.43" cy="17.93" rx="1.43" ry="1.44"/>
			<ellipse class="st0" cx="10" cy="17.93" rx="1.43" ry="1.44"/>
			<ellipse class="st0" cx="18.56" cy="17.93" rx="1.43" ry="1.44"/>
			<ellipse class="st0" cx="27.13" cy="17.93" rx="1.43" ry="1.44"/>
			<ellipse class="st0" cx="35.7" cy="17.93" rx="1.43" ry="1.44"/>
			<ellipse class="st0" cx="5.71" cy="20.43" rx="1.43" ry="1.44"/>
			<ellipse class="st0" cx="14.28" cy="20.43" rx="1.43" ry="1.44"/>
			<ellipse class="st0" cx="22.85" cy="20.43" rx="1.43" ry="1.44"/>
			<ellipse class="st0" cx="31.42" cy="20.43" rx="1.43" ry="1.44"/>
			<ellipse class="st0" cx="1.43" cy="22.93" rx="1.43" ry="1.44"/>
			<ellipse class="st0" cx="10" cy="22.93" rx="1.43" ry="1.44"/>
			<ellipse class="st0" cx="18.56" cy="22.93" rx="1.43" ry="1.44"/>
			<ellipse class="st0" cx="27.13" cy="22.93" rx="1.43" ry="1.44"/>
			<ellipse class="st0" cx="5.71" cy="25.43" rx="1.43" ry="1.44"/>
			<ellipse class="st0" cx="14.28" cy="25.43" rx="1.43" ry="1.44"/>
			<ellipse class="st0" cx="22.85" cy="25.43" rx="1.43" ry="1.44"/>
			<ellipse class="st0" cx="31.42" cy="25.43" rx="1.43" ry="1.44"/>
			<ellipse class="st0" cx="1.43" cy="27.93" rx="1.43" ry="1.44"/>
			<ellipse class="st0" cx="10" cy="27.93" rx="1.43" ry="1.44"/>
			<ellipse class="st0" cx="18.56" cy="27.93" rx="1.43" ry="1.44"/>
			<ellipse class="st0" cx="27.13" cy="27.93" rx="1.43" ry="1.44"/>
			<ellipse class="st0" cx="35.7" cy="27.93" rx="1.43" ry="1.44"/>
			<ellipse class="st0" cx="5.71" cy="30.43" rx="1.43" ry="1.44"/>
			<ellipse class="st0" cx="14.28" cy="30.43" rx="1.43" ry="1.44"/>
			<ellipse class="st0" cx="22.85" cy="30.43" rx="1.43" ry="1.44"/>
			<ellipse class="st0" cx="31.42" cy="30.43" rx="1.43" ry="1.44"/>
			<ellipse class="st0" cx="39.98" cy="30.43" rx="1.43" ry="1.44"/>
			<ellipse class="st0" cx="10" cy="32.93" rx="1.43" ry="1.44"/>
			<ellipse class="st0" cx="18.56" cy="32.93" rx="1.43" ry="1.44"/>
			<ellipse class="st0" cx="27.13" cy="32.93" rx="1.43" ry="1.44"/>
			<ellipse class="st0" cx="35.7" cy="32.93" rx="1.43" ry="1.44"/>
			<ellipse class="st0" cx="44.27" cy="32.93" rx="1.43" ry="1.44"/>
			<ellipse class="st0" cx="14.28" cy="35.43" rx="1.43" ry="1.44"/>
			<ellipse class="st0" cx="22.85" cy="35.43" rx="1.43" ry="1.44"/>
			<ellipse class="st0" cx="31.42" cy="35.43" rx="1.43" ry="1.44"/>
			<ellipse class="st0" cx="39.98" cy="35.43" rx="1.43" ry="1.44"/>
			<ellipse class="st0" cx="48.55" cy="35.43" rx="1.43" ry="1.44"/>
			<ellipse class="st0" cx="18.56" cy="37.93" rx="1.43" ry="1.44"/>
			<ellipse class="st0" cx="27.13" cy="37.93" rx="1.43" ry="1.44"/>
			<ellipse class="st0" cx="35.7" cy="37.93" rx="1.43" ry="1.44"/>
			<ellipse class="st0" cx="44.27" cy="37.93" rx="1.43" ry="1.44"/>
			<ellipse class="st0" cx="52.84" cy="37.93" rx="1.43" ry="1.44"/>
			<ellipse class="st0" cx="22.85" cy="40.43" rx="1.43" ry="1.44"/>
			<ellipse class="st0" cx="31.42" cy="40.43" rx="1.43" ry="1.44"/>
			<ellipse class="st0" cx="39.98" cy="40.43" rx="1.43" ry="1.44"/>
			<ellipse class="st0" cx="48.55" cy="40.43" rx="1.43" ry="1.44"/>
			<ellipse class="st0" cx="27.13" cy="42.94" rx="1.43" ry="1.44"/>
			<ellipse class="st0" cx="35.7" cy="42.94" rx="1.43" ry="1.44"/>
			<ellipse class="st0" cx="44.27" cy="42.94" rx="1.43" ry="1.44"/>
			<ellipse class="st0" cx="52.84" cy="42.94" rx="1.43" ry="1.44"/>
			<ellipse class="st0" cx="22.85" cy="45.44" rx="1.43" ry="1.44"/>
			<ellipse class="st0" cx="31.42" cy="45.44" rx="1.43" ry="1.44"/>
			<ellipse class="st0" cx="39.98" cy="45.44" rx="1.43" ry="1.44"/>
			<ellipse class="st0" cx="48.55" cy="45.44" rx="1.43" ry="1.44"/>
			<ellipse class="st0" cx="18.56" cy="47.94" rx="1.43" ry="1.44"/>
			<ellipse class="st0" cx="27.13" cy="47.94" rx="1.43" ry="1.44"/>
			<ellipse class="st0" cx="35.7" cy="47.94" rx="1.43" ry="1.44"/>
			<ellipse class="st0" cx="44.27" cy="47.94" rx="1.43" ry="1.44"/>
			<ellipse class="st0" cx="52.84" cy="47.94" rx="1.43" ry="1.44"/>
			<ellipse class="st0" cx="14.28" cy="50.44" rx="1.43" ry="1.44"/>
			<ellipse class="st0" cx="22.85" cy="50.44" rx="1.43" ry="1.44"/>
			<ellipse class="st0" cx="31.42" cy="50.44" rx="1.43" ry="1.44"/>
			<ellipse class="st0" cx="39.98" cy="50.44" rx="1.43" ry="1.44"/>
			<ellipse class="st0" cx="48.55" cy="50.44" rx="1.43" ry="1.44"/>
			<ellipse class="st0" cx="10" cy="52.94" rx="1.43" ry="1.44"/>
			<ellipse class="st0" cx="18.56" cy="52.94" rx="1.43" ry="1.44"/>
			<ellipse class="st0" cx="27.13" cy="52.94" rx="1.43" ry="1.44"/>
			<ellipse class="st0" cx="35.7" cy="52.94" rx="1.43" ry="1.44"/>
			<ellipse class="st0" cx="44.27" cy="52.94" rx="1.43" ry="1.44"/>
			<ellipse class="st0" cx="14.28" cy="55.44" rx="1.43" ry="1.44"/>
			<ellipse class="st0" cx="22.85" cy="55.44" rx="1.43" ry="1.44"/>
			<ellipse class="st0" cx="31.42" cy="55.44" rx="1.43" ry="1.44"/>
			<ellipse class="st0" cx="39.98" cy="55.44" rx="1.43" ry="1.44"/>
			<ellipse class="st0" cx="18.56" cy="57.94" rx="1.43" ry="1.44"/>
			<ellipse class="st0" cx="27.13" cy="57.94" rx="1.43" ry="1.44"/>
			<ellipse class="st0" cx="35.7" cy="57.94" rx="1.43" ry="1.44"/>
			<ellipse class="st0" cx="22.85" cy="60.44" rx="1.43" ry="1.44"/>
			<ellipse class="st0" cx="31.42" cy="60.44" rx="1.43" ry="1.44"/>
			<ellipse class="st0" cx="27.13" cy="62.94" rx="1.43" ry="1.44"/>
		</g>
		<path class="st0" d="M27.13,0"/>
	</g>
	<rect x="239.85" y="6.78" class="st0" width="1.13" height="54.22"/>
</g>
</svg>
